<svg version="1.1" viewBox="0 0 25 24.193" xmlns="http://www.w3.org/2000/svg">
 <path d="m9.7188 0c-0.44958 0-0.81055 0.36098-0.81055 0.81055v22.572c0 0.4496 0.36097 0.81055 0.81055 0.81055h5.5566c0.4496 0 0.81055-0.36095 0.81055-0.81055v-22.572c0.0051-0.44957-0.35714-0.81055-0.80664-0.81055zm-8.9082 6.5215c-0.44957 0-0.81055 0.36098-0.81055 0.81055v16.051c0 0.4496 0.36098 0.81055 0.81055 0.81055h5.5566c0.44956 0 0.81055-0.36095 0.81055-0.81055v-16.051c0.00517-0.44957-0.36099-0.81055-0.81055-0.81055zm0.8125 1.623h3.9316v14.428h-3.9316zm17.01 2.6348c-0.4496 0-0.81055 0.36095-0.81055 0.81055v11.793c0 0.4495 0.36095 0.81055 0.81055 0.81055h5.5566c0.4496 0 0.81055-0.36105 0.81055-0.81055v-11.793c0-0.4496-0.36095-0.81055-0.81055-0.81055zm0.8125 1.623h1.2598l-1.2598 1.2598zm2.5469 0.0039h1.2871l-3.834 3.8359v-1.2871zm1.3848 1.1836v1.2871l-3.9316 3.9316v-1.2852zm0 2.5742v1.2871l-3.9316 3.9316v-1.2871zm-0.0039 2.5723v1.2832h0.0039l-2.5527 2.5527h-1.2871zm0.0039 2.5684v1.2676h-1.2656z"/>
</svg>
