<svg width="26" height="26" viewBox="0 0 26 26" fill="none" xmlns="http://www.w3.org/2000/svg">
<g clip-path="url(#clip0)">
<path d="M6.86627 7.14648H1.31129C0.86172 7.14648 0.5 7.5082 0.5 7.95777V24.0078C0.5 24.4574 0.86172 24.8191 1.31129 24.8191H6.86627C7.31583 24.8191 7.67755 24.4574 7.67755 24.0078V7.95777C7.68272 7.5082 7.31583 7.14648 6.86627 7.14648ZM6.05498 23.1965H2.12257V8.76906H6.05498V23.1965Z" fill="#676F91"/>
<path d="M24.6885 11.4044H19.1336C18.684 11.4044 18.3223 11.7661 18.3223 12.2157V24.0078C18.3223 24.4573 18.684 24.8191 19.1336 24.8191H24.6885C25.1381 24.8191 25.4998 24.4573 25.4998 24.0078V12.2157C25.4998 11.7661 25.1381 11.4044 24.6885 11.4044ZM19.9448 13.027H21.2057L19.9448 14.2878V13.027ZM19.9448 15.5797L22.4924 13.0322H23.7791L19.9448 16.8664V15.5797ZM23.8772 23.1965H22.6112L23.8772 21.9305V23.1965ZM23.8772 20.6438L21.3245 23.1965H20.0379L23.8721 19.3623V20.6438H23.8772ZM23.8772 18.0756L19.9448 22.008V20.7213L23.8772 16.7889V18.0756ZM23.8772 15.5022L19.9448 19.4346V18.1479L23.8772 14.2155V15.5022Z" fill="#676F91"/>
<path d="M15.7797 0.625122H10.2195C9.76992 0.625122 9.4082 0.986842 9.4082 1.43641V24.0077C9.4082 24.4573 9.76992 24.819 10.2195 24.819H15.7745C16.2241 24.819 16.5858 24.4573 16.5858 24.0077V1.43641C16.5909 0.986842 16.2292 0.625122 15.7797 0.625122Z" fill="#676F91"/>
</g>
<defs>
<clipPath id="clip0">
<rect width="25" height="25" fill="white" transform="translate(0.5 0.222168)"/>
</clipPath>
</defs>
</svg>
