<svg width="26" height="26" viewBox="0 0 26 26" fill="none" xmlns="http://www.w3.org/2000/svg">
<g clip-path="url(#clip0)">
<path d="M13.3042 12.2452C13.3761 12.3169 13.4736 12.3574 13.5753 12.3574H25.0818C25.1905 12.3574 25.2941 12.3112 25.3668 12.2304C25.4396 12.1496 25.4746 12.0414 25.463 11.9334C25.1343 8.85007 23.6939 6.02066 21.4072 3.96624C19.1186 1.9102 16.1455 0.77771 13.0353 0.77771C10.1928 0.77771 7.40967 1.75826 5.19859 3.53913C5.11376 3.60745 5.06208 3.70838 5.05622 3.81713C5.05036 3.92595 5.09105 4.03187 5.168 4.10888L13.3042 12.2452ZM11.7535 7.8747L15.0534 2.96662C15.4321 3.0404 15.8083 3.13554 16.1764 3.25068L12.565 8.6862L11.7535 7.8747ZM13.0353 2.77163C13.1336 2.77163 13.2331 2.77297 13.3333 2.77587L10.6482 6.76957L9.77841 5.89958L11.9288 2.8293C12.2959 2.79103 12.6676 2.77163 13.0353 2.77163ZM9.72383 3.30378L8.67725 4.79836L7.95678 4.07788C8.42337 3.81989 8.91172 3.5964 9.41254 3.41259C9.51509 3.37479 9.61899 3.33868 9.72383 3.30378ZM19.5066 10.3636L21.6073 7.2018C21.7518 7.40575 21.8901 7.61658 22.0209 7.83192L20.2836 10.3635H19.5066V10.3636ZM22.1438 10.3636L22.8029 9.40337C22.9281 9.71857 23.0379 10.0397 23.1314 10.3636H22.1438ZM16.4174 10.3636L19.8139 5.25154C19.9232 5.34378 20.0289 5.43663 20.1298 5.52907C20.2819 5.66827 20.434 5.81664 20.5835 5.97134L17.6651 10.3635H16.4174V10.3636ZM14.5759 10.3636H14.2423L13.6714 9.79241L17.6333 3.82953C17.9555 3.98652 18.2701 4.16009 18.5728 4.34794L14.5759 10.3636Z" fill="#676F91"/>
<path d="M11.6566 13.2004L3.86646 5.41019C3.78938 5.33331 3.68326 5.29261 3.57465 5.29854C3.46603 5.30434 3.36497 5.35608 3.29664 5.44091C1.51591 7.65185 0.535156 10.435 0.535156 13.2776C0.535156 17.1707 2.30059 20.7722 5.37889 23.1588C5.44668 23.2111 5.52948 23.2391 5.61384 23.2391C5.63668 23.2391 5.65973 23.2371 5.6825 23.2328C5.78963 23.2133 5.88342 23.1493 5.94042 23.0566L11.7121 13.6723C11.805 13.5212 11.782 13.326 11.6566 13.2004ZM9.34746 13.711L5.26577 20.3476C4.62958 19.6488 4.09278 18.8741 3.6681 18.0406C2.91225 16.5579 2.52901 14.9556 2.52901 13.2777C2.52901 12.0313 2.74462 10.8123 3.17004 9.65493C3.35405 9.15391 3.57727 8.66569 3.83533 8.1991L9.34746 13.711Z" fill="#676F91"/>
<path d="M25.0814 14.1981H13.7637C13.6305 14.1981 13.5068 14.2671 13.4371 14.3807L7.50708 24.0225C7.45001 24.1152 7.43505 24.2279 7.46598 24.3323C7.49677 24.4364 7.57055 24.5228 7.66865 24.5696C9.35121 25.3712 11.1567 25.7778 13.035 25.7778C16.1452 25.7778 19.1183 24.6453 21.407 22.5893C23.6936 20.5349 25.134 17.7055 25.4627 14.6221C25.4743 14.5141 25.4393 14.406 25.3666 14.3251C25.2938 14.2443 25.1902 14.1981 25.0814 14.1981Z" fill="#676F91"/>
</g>
<defs>
<clipPath id="clip0">
<rect width="25" height="25" fill="white" transform="translate(0.5 0.77771)"/>
</clipPath>
</defs>
</svg>
