<svg width="24.93" height="25" version="1.1" viewBox="0 0 24.93 25" xmlns="http://www.w3.org/2000/svg">
 <path d="m12.5 0c-2.8425 0-5.6268 0.98085-7.8379 2.7617-0.08483 0.06832-0.13672 0.16859-0.14258 0.27734-0.00586 0.10882 0.036331 0.21596 0.11328 0.29297l8.1348 8.1348c0.0719 0.0717 0.16978 0.11328 0.27148 0.11328h11.506c0.1087 0 0.21246-0.04615 0.28516-0.12695 0.0728-0.0808 0.10926-0.18888 0.09766-0.29688-0.3287-3.0833-1.7699-5.9124-4.0566-7.9668-2.2886-2.056-5.2609-3.1895-8.3711-3.1895zm0 1.9941c0.0983 0 0.19668 0.00101 0.29688 0.00391l-2.6855 3.9941-0.86914-0.86914 2.1504-3.0703c0.3671-0.03827 0.73972-0.058594 1.1074-0.058594zm2.0176 0.19531c0.3787 0.07378 0.75495 0.16806 1.123 0.2832l-3.6113 5.4355-0.8125-0.81055zm-5.3301 0.33594-1.0469 1.4961-0.7207-0.7207c0.46659-0.25799 0.95621-0.48221 1.457-0.66602 0.10255-0.0378 0.20571-0.074475 0.31055-0.10938zm7.9102 0.52734c0.3222 0.15699 0.63675 0.32973 0.93945 0.51758l-3.998 6.0156h-0.33203l-0.57227-0.57031zm2.1797 1.4219c0.1093 0.09224 0.21551 0.1849 0.31641 0.27734 0.1521 0.1392 0.30362 0.28671 0.45312 0.44141l-2.918 4.3926h-1.248zm-16.238 0.046875c-0.10862 0.0058-0.21097 0.057748-0.2793 0.14258-1.7807 2.2109-2.7598 4.9933-2.7598 7.8359 0 3.8931 1.7654 7.4943 4.8438 9.8809 0.06779 0.0523 0.15001 0.08008 0.23438 0.08008 0.02284 0 0.045589-0.0016 0.068359-0.0059 0.10713-0.0195 0.20081-0.08308 0.25781-0.17578l5.7715-9.3848c0.0929-0.1511 0.07071-0.3451-0.05469-0.4707l-7.791-7.791c-0.07708-0.07688-0.18241-0.11726-0.29102-0.11133zm18.033 1.9023c0.1445 0.20395 0.28131 0.41552 0.41211 0.63086l-1.7363 2.5312h-0.77734zm-17.773 0.99805 5.5137 5.5117-4.082 6.6367c-0.63619-0.6988-1.173-1.4731-1.5977-2.3066-0.75585-1.4827-1.1406-3.0858-1.1406-4.7637 0-1.2464 0.21716-2.4657 0.64258-3.623 0.18401-0.50102 0.406-0.98849 0.66406-1.4551zm18.969 1.2031c0.1252 0.3152 0.23462 0.63704 0.32812 0.96094h-0.98828zm-9.0391 4.7949c-0.1332 0-0.25842 0.06999-0.32812 0.18359l-5.9297 9.6406c-0.05707 0.0927-0.071946 0.20615-0.041016 0.31055 0.03079 0.1041 0.10502 0.19148 0.20312 0.23828 1.6826 0.8016 3.4889 1.207 5.3672 1.207 3.1102 0 6.0824-1.1315 8.3711-3.1875 2.2866-2.0544 3.7279-4.8854 4.0566-7.9688 0.0116-0.108-0.02496-0.21598-0.09766-0.29688-0.0728-0.0808-0.17636-0.12695-0.28516-0.12695z"/>
</svg>
