<svg width="26" height="26" viewBox="0 0 26 26" fill="none" xmlns="http://www.w3.org/2000/svg">
<g clip-path="url(#clip0)">
<path opacity="0.9" d="M13.625 1.06946C9.25 1.06946 5.375 3.44446 3.375 7.06946L0.5 4.19446V12.3195H8.625L5.125 8.81946C6.75 5.69446 9.875 3.56946 13.625 3.56946C18.75 3.56946 23 7.81946 23 12.9445C23 18.0695 18.75 22.3195 13.625 22.3195C9.5 22.3195 6.125 19.6945 4.75 16.0695H2.125C3.5 21.0695 8.125 24.8195 13.625 24.8195C20.25 24.8195 25.5 19.4445 25.5 12.9445C25.5 6.44446 20.125 1.06946 13.625 1.06946ZM11.75 7.31946V13.6945L17.625 17.1945L18.625 15.5695L13.625 12.5695V7.31946H11.75Z" fill="#676F91"/>
</g>
<defs>
<clipPath id="clip0">
<rect width="25" height="25" fill="white" transform="translate(0.5 0.444458)"/>
</clipPath>
</defs>
</svg>
