<svg width="25" height="25" version="1.1" viewBox="0 0 25 25" xmlns="http://www.w3.org/2000/svg">
 <path d="m21.289 0c-1.2116 0-2.1973 0.98572-2.1973 2.1973 0 0.22812 0.04448 0.4454 0.10938 0.65234l-2.5566 1.916c-0.3487-0.23289-0.76514-0.37109-1.2148-0.37109-1.2116 0-2.1973 0.98572-2.1973 2.1973 0 0.33817 0.08165 0.65492 0.21875 0.94141l-2.9395 2.9414c-0.2865-0.1372-0.60321-0.2207-0.94141-0.2207-0.59088 0-1.1263 0.23844-1.5215 0.61914l-2.168-1.084c0.01087-0.0883 0.027344-0.17641 0.027344-0.26758 0-1.2116-0.98572-2.1973-2.1973-2.1973-1.2116 0-2.1973 0.98572-2.1973 2.1973 0 1.2116 0.98572 2.1973 2.1973 2.1973 0.59089 0 1.1243-0.23649 1.5195-0.61719l2.168 1.084c-0.01087 0.0883-0.025391 0.17452-0.025391 0.26562 0 1.2116 0.98573 2.1973 2.1973 2.1973 1.2116 0 2.1973-0.98567 2.1973-2.1973 0-0.3381-0.0836-0.65491-0.2207-0.94141l2.9414-2.9395c0.2865 0.13713 0.60321 0.21875 0.94141 0.21875 1.2115 0 2.1973-0.98572 2.1973-2.1973 0-0.22812-0.04653-0.44344-0.11133-0.65039l2.5566-1.916c0.3487 0.23289 0.767 0.36914 1.2168 0.36914 1.2115 0 2.1973-0.98572 2.1973-2.1973 0-1.2115-0.98576-2.1973-2.1973-2.1973zm-1.4648 7.3242c-0.4047 0-0.73242 0.32768-0.73242 0.73242v15.479h-1.4648v-11.084c0-0.4047-0.32762-0.73242-0.73242-0.73242h-2.9297c-0.4047 0-0.73242 0.32772-0.73242 0.73242v11.084h-1.4648v-5.2246c0-0.4047-0.32772-0.73242-0.73242-0.73242h-2.9297c-0.40474 0-0.73242 0.32772-0.73242 0.73242v5.2246h-1.4648v-8.1543c0-0.4047-0.32768-0.73242-0.73242-0.73242h-2.9297c-0.40474 0-0.73242 0.32772-0.73242 0.73242v8.1543h-0.78125c-0.40474 0-0.73242 0.32772-0.73242 0.73242 0 0.4048 0.32768 0.73242 0.73242 0.73242h23.535c0.4047 0 0.73242-0.32762 0.73242-0.73242 0-0.4047-0.32772-0.73242-0.73242-0.73242h-0.78125v-15.479c0-0.40474-0.32772-0.73242-0.73242-0.73242z"/>
</svg>
