<svg width="26" height="26" viewBox="0 0 26 26" fill="none" xmlns="http://www.w3.org/2000/svg">
<g clip-path="url(#clip0)">
<path d="M4.21094 12.052C4.80183 12.052 5.33665 11.8149 5.73186 11.4342L7.89994 12.5182C7.88907 12.6065 7.87305 12.6933 7.87305 12.7844C7.87305 13.996 8.85876 14.9817 10.0703 14.9817C11.2819 14.9817 12.2676 13.996 12.2676 12.7844C12.2676 12.4463 12.1844 12.1296 12.0473 11.8431L14.9884 8.90202C15.2749 9.03915 15.5915 9.12231 15.9297 9.12231C17.1412 9.12231 18.127 8.1366 18.127 6.92505C18.127 6.69693 18.0821 6.48121 18.0173 6.27426L20.5727 4.35814C20.9214 4.59103 21.3393 4.72778 21.7891 4.72778C23.0006 4.72778 23.9863 3.74207 23.9863 2.53052C23.9863 1.31897 23.0006 0.333252 21.7891 0.333252C20.5775 0.333252 19.5918 1.31897 19.5918 2.53052C19.5918 2.75864 19.6366 2.97436 19.7015 3.1813L17.146 5.09743C16.7973 4.86454 16.3794 4.72778 15.9297 4.72778C14.7181 4.72778 13.7324 5.7135 13.7324 6.92505C13.7324 7.26322 13.8156 7.57984 13.9527 7.86633L11.0116 10.8075C10.7251 10.6703 10.4085 10.5872 10.0703 10.5872C9.47942 10.5872 8.9446 10.8242 8.54939 11.2049L6.38131 10.121C6.39218 10.0327 6.4082 9.94591 6.4082 9.85474C6.4082 8.64319 5.42249 7.65747 4.21094 7.65747C2.99939 7.65747 2.01367 8.64319 2.01367 9.85474C2.01367 11.0663 2.99939 12.052 4.21094 12.052Z" fill="#676F91"/>
<path d="M24.7676 23.8684H23.9863V8.38989C23.9863 7.98515 23.6586 7.65747 23.2539 7.65747H20.3242C19.9195 7.65747 19.5918 7.98515 19.5918 8.38989V23.8684H18.127V12.7844C18.127 12.3797 17.7993 12.052 17.3945 12.052H14.4648C14.0601 12.052 13.7324 12.3797 13.7324 12.7844V23.8684H12.2676V18.6438C12.2676 18.2391 11.9399 17.9114 11.5352 17.9114H8.60547C8.20073 17.9114 7.87305 18.2391 7.87305 18.6438V23.8684H6.4082V15.7141C6.4082 15.3094 6.08052 14.9817 5.67578 14.9817H2.74609C2.34135 14.9817 2.01367 15.3094 2.01367 15.7141V23.8684H1.23242C0.827683 23.8684 0.5 24.1961 0.5 24.6008C0.5 25.0056 0.827683 25.3333 1.23242 25.3333H24.7676C25.1723 25.3333 25.5 25.0056 25.5 24.6008C25.5 24.1961 25.1723 23.8684 24.7676 23.8684Z" fill="#676F91"/>
</g>
<defs>
<clipPath id="clip0">
<rect width="25" height="25" fill="white" transform="translate(0.5 0.333252)"/>
</clipPath>
</defs>
</svg>
