<svg width="25" height="20" version="1.1" viewBox="0 0 25 20" xmlns="http://www.w3.org/2000/svg">
 <path d="m2.084 0c-0.5729 0-1.0644 0.20334-1.4727 0.61133-0.40799 0.40804-0.61133 0.89971-0.61133 1.4727v15.832c0 0.5731 0.20334 1.0647 0.61133 1.4727 0.40822 0.4079 0.89976 0.61133 1.4727 0.61133h20.832c0.5728 0 1.0647-0.20343 1.4727-0.61133 0.4079-0.408 0.61133-0.89946 0.61133-1.4727v-15.832c0-0.57295-0.20343-1.0646-0.61133-1.4727-0.408-0.40794-0.89986-0.61133-1.4727-0.61133zm0 1.666h20.832c0.1127 0 0.21057 0.04259 0.29297 0.125 0.0824 0.08264 0.12305 0.18014 0.12305 0.29297v2.916h-21.666v-2.916c0-0.11283 0.04245-0.21033 0.125-0.29297 0.0825-0.08223 0.18024-0.125 0.29297-0.125zm-0.41797 8.334h21.668v7.916c0 0.1131-0.0425 0.21212-0.125 0.29492-0.0824 0.082-0.18027 0.12305-0.29297 0.12305h-20.832c-0.11279 0-0.21051-0.0426-0.29297-0.125-0.08241-0.0826-0.125-0.17997-0.125-0.29297zm1.668 5v1.666h3.334v-1.666zm5 0v1.666h5v-1.666z"/>
</svg>
