<svg width="26" height="26" viewBox="0 0 26 26" fill="none" xmlns="http://www.w3.org/2000/svg">
<g clip-path="url(#clip0)">
<path d="M24.8879 3.77864C24.4799 3.3707 23.9895 3.16675 23.4167 3.16675H2.58332C2.01042 3.16675 1.52011 3.37065 1.11189 3.77864C0.703903 4.18668 0.5 4.67698 0.5 5.24993V21.083C0.5 21.6561 0.703903 22.1465 1.11189 22.5545C1.52011 22.9624 2.01042 23.1664 2.58332 23.1664H23.4167C23.9895 23.1664 24.4799 22.9624 24.8879 22.5545C25.2958 22.1465 25.5 21.6562 25.5 21.083V5.24993C25.5 4.67698 25.2958 4.18668 24.8879 3.77864ZM23.8332 21.0833C23.8332 21.1964 23.792 21.2937 23.7095 21.3765C23.6271 21.4585 23.5294 21.4997 23.4167 21.4997H2.58332C2.47053 21.4997 2.37285 21.4585 2.29039 21.3761C2.20798 21.2935 2.16671 21.196 2.16671 21.083V13.1666H23.8332V21.0833H23.8332ZM23.8332 8.16642H2.16666V5.24975C2.16666 5.13692 2.2078 5.03946 2.29035 4.95682C2.37285 4.87459 2.47054 4.83332 2.58327 4.83332H23.4167C23.5294 4.83332 23.6271 4.87441 23.7095 4.95682C23.7919 5.03946 23.8331 5.13692 23.8331 5.24975V8.16642H23.8332Z" fill="#676F91"/>
<path d="M7.16728 18.1665H3.83398V19.8333H7.16728V18.1665Z" fill="#676F91"/>
<path d="M13.8339 18.1665H8.83398V19.8333H13.8339V18.1665Z" fill="#676F91"/>
</g>
<defs>
<clipPath id="clip0">
<rect width="25" height="25" fill="white" transform="translate(0.5 0.666626)"/>
</clipPath>
</defs>
</svg>
