<svg width="26" height="25" viewBox="0 0 26 25" fill="none" xmlns="http://www.w3.org/2000/svg">
<g clip-path="url(#clip0)">
<path d="M0.5 12.5C0.5 15.9375 1.90625 19.0625 4.25 21.25L0.5 25H9.875V15.625L6.4375 19.0625C4.71875 17.5 3.625 15.1562 3.625 12.5C3.625 8.4375 6.28125 5 9.875 3.59375V0.46875C4.5625 1.875 0.5 6.71875 0.5 12.5ZM25.5 0L16.125 0V9.375L19.5625 5.9375C21.2812 7.5 22.375 9.84375 22.375 12.5C22.375 16.5625 19.7188 20 16.125 21.4062V24.6875C21.4375 23.2812 25.5 18.4375 25.5 12.6562C25.5 9.21869 24.0938 6.09369 21.75 3.90619L25.5 0Z" fill="#676F91"/>
</g>
<defs>
<clipPath id="clip0">
<rect width="25" height="25" fill="white" transform="translate(0.5)"/>
</clipPath>
</defs>
</svg>
