<svg width="24.998" height="23.999" version="1.1" viewBox="0 0 24.998 23.999" xmlns="http://www.w3.org/2000/svg">
 <path d="m13.936 0.0024885c-0.18186 0.010878-0.36376 0.056251-0.53711 0.14258l-8.9219 4.4219h1.3652l9.9648-2.7188-0.52734-1.0684c-0.25905-0.52007-0.79816-0.80998-1.3438-0.77734zm4.9668 1.9238c-0.1235 0-0.24759 0.017091-0.37109 0.050781l-2.3418 0.63867-7.1504 1.9512h11.654l-0.43945-1.6055c-0.1684-0.62605-0.73396-1.0352-1.3516-1.0352zm-17.496 3.625c-0.44357 0-0.83937 0.20448-1.0977 0.52734-0.11791 0.14879-0.20923 0.31971-0.25977 0.50781-0.030881 0.11791-0.048828 0.24085-0.048828 0.36719v15.641c0 0.7749 0.62749 1.4043 1.4023 1.4043h20.75c0.7749 0 1.4043-0.6294 1.4043-1.4043v-3.916h-8.3301c-1.3167 0-2.3867-1.07-2.3867-2.3867v-3.1211c0-0.6457 0.25943-1.2326 0.67773-1.6621 0.3706-0.3819 0.86608-0.64048 1.4219-0.70508 0.0927-0.0112 0.18966-0.01758 0.28516-0.01758h8.332v-3.832c0.002801-0.77485-0.62754-1.4023-1.4023-1.4023h-19.912zm13.82 6.209c-0.7748 0-1.4043 0.6294-1.4043 1.4043v3.125c0 0.7749 0.6295 1.4023 1.4043 1.4023h8.3691c0.16 0 0.30992-0.02847 0.45312-0.07617 0.1853-0.0617 0.35179-0.16182 0.49219-0.29102 0.2807-0.2554 0.45703-0.62526 0.45703-1.0352v-3.125c0-0.4099-0.17633-0.78161-0.45703-1.0371-0.1404-0.1291-0.30689-0.22652-0.49219-0.29102-0.1432-0.0477-0.29312-0.07617-0.45312-0.07617h-2.0703zm1.7617 2.0781h0.4668c0.3874 0 0.70117 0.31367 0.70117 0.70117v0.4668c0 0.3874-0.31377 0.70117-0.70117 0.70117h-0.4668c-0.3874 0-0.70117-0.31377-0.70117-0.70117v-0.4668c0-0.2246 0.10383-0.42448 0.26953-0.55078 0.1207-0.0926 0.26884-0.15039 0.43164-0.15039z"/>
</svg>
