<svg width="26" height="26" viewBox="0 0 26 26" fill="none" xmlns="http://www.w3.org/2000/svg">
<g clip-path="url(#clip0)">
<path d="M6.34194 5.62473L16.3083 2.90435L15.7805 1.83753C15.4351 1.1441 14.5929 0.857742 13.8995 1.20305L4.97754 5.62473H6.34194Z" fill="#676F91"/>
<path d="M19.4025 2.98291C19.279 2.98291 19.1554 2.99975 19.0319 3.03344L16.6905 3.67353L9.54004 5.62468H17.6563H21.1936L20.7556 4.01884C20.5872 3.39279 20.0201 2.98291 19.4025 2.98291Z" fill="#676F91"/>
<path d="M22.6561 6.60742H22.336H21.9009H21.4657H18.1446H5.94076H4.34054H2.99298H2.74312H1.90651C1.46294 6.60742 1.0671 6.81236 0.808815 7.13522C0.690904 7.28401 0.601067 7.45526 0.550533 7.64336C0.519652 7.76127 0.5 7.88479 0.5 8.01113V8.17957V9.7798V23.6512C0.5 24.4261 1.12886 25.0549 1.90371 25.0549H22.6533C23.4282 25.0549 24.057 24.4261 24.057 23.6512V19.7349H15.7274C14.4107 19.7349 13.3411 18.6653 13.3411 17.3486V16.0628V15.6276V15.1925V14.2267C13.3411 13.581 13.5994 12.9943 14.0177 12.5648C14.3883 12.1829 14.8852 11.9247 15.441 11.8601C15.5337 11.8489 15.6291 11.8432 15.7246 11.8432H22.8891H23.3243H23.7594H24.057V8.01113C24.0598 7.23628 23.4309 6.60742 22.6561 6.60742Z" fill="#676F91"/>
<path d="M25.0419 13.1851C24.9015 13.056 24.7359 12.9577 24.5506 12.8932C24.4074 12.8455 24.2558 12.8174 24.0958 12.8174H24.0593H24.0312H23.5961H22.0268H15.7269C14.9521 12.8174 14.3232 13.4462 14.3232 14.2211V14.9201V15.3553V15.7904V17.3457C14.3232 18.1206 14.9521 18.7494 15.7269 18.7494H24.0593H24.0958C24.2558 18.7494 24.4074 18.7213 24.5506 18.6736C24.7359 18.6119 24.9015 18.5108 25.0419 18.3816C25.3226 18.1262 25.4995 17.7556 25.4995 17.3457V14.2211C25.4995 13.8112 25.3226 13.4406 25.0419 13.1851ZM18.6579 16.0627C18.6579 16.4501 18.3434 16.7646 17.956 16.7646H17.49C17.1026 16.7646 16.7881 16.4501 16.7881 16.0627V15.5967C16.7881 15.3721 16.892 15.1727 17.0577 15.0464C17.1784 14.9538 17.3272 14.8948 17.49 14.8948H17.6079H17.956C18.3434 14.8948 18.6579 15.2092 18.6579 15.5967V16.0627Z" fill="#676F91"/>
</g>
<defs>
<clipPath id="clip0">
<rect width="25" height="25" fill="white" transform="translate(0.5 0.555542)"/>
</clipPath>
</defs>
</svg>
