<svg width="537" height="108" viewBox="0 0 537 108" fill="none" xmlns="http://www.w3.org/2000/svg">
<g filter="url(#filter0_d)">
<path fill-rule="evenodd" clip-rule="evenodd" d="M230.668 23.3683C229.92 22.6197 228.706 22.6197 227.957 23.3683L201.76 49.5657C201.011 50.3144 201.011 51.5282 201.76 52.2768L227.957 78.4742C228.706 79.2229 229.92 79.2229 230.668 78.4742L256.866 52.2768C257.614 51.5282 257.614 50.3144 256.866 49.5657L230.668 23.3683ZM193.194 49.5657C192.446 50.3144 192.446 51.5282 193.194 52.2768L227.957 87.0397C228.706 87.7884 229.92 87.7884 230.668 87.0397L265.431 52.2768C266.18 51.5282 266.18 50.3144 265.431 49.5657L230.668 14.8028C229.92 14.0542 228.706 14.0542 227.957 14.8028L193.194 49.5657Z" fill="url(#paint0_linear)" stroke="url(#paint1_linear)" stroke-width="3.33"/>
<path fill-rule="evenodd" clip-rule="evenodd" d="M192.97 52.5005C192.098 51.6283 192.098 50.2142 192.97 49.3421L227.733 14.5791C228.605 13.707 230.019 13.707 230.891 14.5791L265.654 49.3421C266.526 50.2142 266.526 51.6283 265.654 52.5005L230.891 87.2634C230.019 88.1356 228.605 88.1356 227.733 87.2634L192.97 52.5005ZM193.417 49.7894C192.792 50.4145 192.792 51.428 193.417 52.0531L228.18 86.8161C228.805 87.4412 229.819 87.4412 230.444 86.8161L265.207 52.0531C265.832 51.428 265.832 50.4145 265.207 49.7894L230.444 15.0265C229.819 14.4014 228.805 14.4014 228.18 15.0265L193.417 49.7894ZM201.535 52.5005C200.663 51.6283 200.663 50.2142 201.535 49.3421L227.733 23.1446C228.605 22.2725 230.019 22.2725 230.891 23.1446L257.089 49.3421C257.961 50.2142 257.961 51.6283 257.089 52.5005L230.891 78.6979C230.019 79.5701 228.605 79.5701 227.733 78.6979L201.535 52.5005ZM201.983 49.7894C201.358 50.4145 201.358 51.428 201.983 52.0531L228.18 78.2506C228.805 78.8757 229.819 78.8757 230.444 78.2506L256.641 52.0531C257.266 51.428 257.266 50.4145 256.641 49.7894L230.444 23.592C229.819 22.9668 228.805 22.9668 228.18 23.592L201.983 49.7894Z" fill="url(#paint2_linear)" stroke="url(#paint3_linear)" stroke-width="3.33"/>
</g>
<g opacity="0.93" filter="url(#filter1_d)">
<path d="M30.448 35.479C35.728 35.479 39.76 36.775 42.544 39.367C45.376 41.959 46.792 45.823 46.792 50.959V73.999H40.24V68.959C39.088 70.735 37.432 72.103 35.272 73.063C33.16 73.975 30.64 74.431 27.712 74.431C23.44 74.431 20.008 73.399 17.416 71.335C14.872 69.271 13.6 66.559 13.6 63.199C13.6 59.839 14.824 57.151 17.272 55.135C19.72 53.071 23.608 52.039 28.936 52.039H39.88V50.671C39.88 47.695 39.016 45.415 37.288 43.831C35.56 42.247 33.016 41.455 29.656 41.455C27.4 41.455 25.192 41.839 23.032 42.607C20.872 43.327 19.048 44.311 17.56 45.559L14.68 40.375C16.648 38.791 19 37.591 21.736 36.775C24.472 35.911 27.376 35.479 30.448 35.479ZM28.864 69.103C31.504 69.103 33.784 68.527 35.704 67.375C37.624 66.175 39.016 64.495 39.88 62.335V57.007H29.224C23.368 57.007 20.44 58.975 20.44 62.911C20.44 64.831 21.184 66.343 22.672 67.447C24.16 68.551 26.224 69.103 28.864 69.103ZM56.8473 42.247C58.0472 40.039 59.8232 38.359 62.1752 37.207C64.5273 36.055 67.3833 35.479 70.7433 35.479V42.175C70.3593 42.127 69.8313 42.103 69.1592 42.103C65.4153 42.103 62.4633 43.231 60.3032 45.487C58.1912 47.695 57.1352 50.863 57.1352 54.991V73.999H50.2232V35.839H56.8473V42.247ZM86.1828 74.431C82.2947 74.431 78.8147 73.591 75.7427 71.911C72.7187 70.231 70.3427 67.927 68.6147 64.999C66.8867 62.023 66.0227 58.663 66.0227 54.919C66.0227 51.175 66.8867 47.839 68.6147 44.911C70.3427 41.935 72.7187 39.631 75.7427 37.999C78.8147 36.319 82.2947 35.479 86.1828 35.479C89.6388 35.479 92.7108 36.175 95.3988 37.567C98.1348 38.959 100.247 40.975 101.735 43.615L96.4788 46.999C95.2788 45.175 93.7908 43.807 92.0148 42.895C90.2388 41.983 88.2708 41.527 86.1107 41.527C83.6148 41.527 81.3588 42.079 79.3427 43.183C77.3747 44.287 75.8147 45.871 74.6627 47.935C73.5587 49.951 73.0067 52.279 73.0067 54.919C73.0067 57.607 73.5587 59.983 74.6627 62.047C75.8147 64.063 77.3747 65.623 79.3427 66.727C81.3588 67.831 83.6148 68.383 86.1107 68.383C88.2708 68.383 90.2388 67.927 92.0148 67.015C93.7908 66.103 95.2788 64.735 96.4788 62.911L101.735 66.223C100.247 68.863 98.1348 70.903 95.3988 72.343C92.7108 73.735 89.6388 74.431 86.1828 74.431ZM115.22 35.479C120.5 35.479 124.532 36.775 127.316 39.367C130.148 41.959 131.564 45.823 131.564 50.959V73.999H125.012V68.959C123.86 70.735 122.204 72.103 120.044 73.063C117.932 73.975 115.412 74.431 112.484 74.431C108.212 74.431 104.78 73.399 102.188 71.335C99.6436 69.271 98.3716 66.559 98.3716 63.199C98.3716 59.839 99.5956 57.151 102.044 55.135C104.492 53.071 108.38 52.039 113.708 52.039H124.652V50.671C124.652 47.695 123.788 45.415 122.06 43.831C120.332 42.247 117.788 41.455 114.428 41.455C112.172 41.455 109.964 41.839 107.804 42.607C105.644 43.327 103.82 44.311 102.332 45.559L99.4516 40.375C101.42 38.791 103.772 37.591 106.508 36.775C109.244 35.911 112.148 35.479 115.22 35.479ZM113.636 69.103C116.276 69.103 118.556 68.527 120.476 67.375C122.396 66.175 123.788 64.495 124.652 62.335V57.007H113.996C108.14 57.007 105.212 58.975 105.212 62.911C105.212 64.831 105.956 66.343 107.444 67.447C108.932 68.551 110.996 69.103 113.636 69.103ZM171.206 20.575V73.999H164.582V67.951C163.046 70.063 161.102 71.671 158.75 72.775C156.398 73.879 153.806 74.431 150.974 74.431C147.278 74.431 143.966 73.615 141.038 71.983C138.11 70.351 135.806 68.071 134.126 65.143C132.494 62.167 131.678 58.759 131.678 54.919C131.678 51.079 132.494 47.695 134.126 44.767C135.806 41.839 138.11 39.559 141.038 37.927C143.966 36.295 147.278 35.479 150.974 35.479C153.71 35.479 156.23 36.007 158.534 37.063C160.838 38.071 162.758 39.583 164.294 41.599V20.575H171.206ZM151.55 68.383C153.95 68.383 156.134 67.831 158.102 66.727C160.07 65.575 161.606 63.991 162.71 61.975C163.814 59.911 164.366 57.559 164.366 54.919C164.366 52.279 163.814 49.951 162.71 47.935C161.606 45.871 160.07 44.287 158.102 43.183C156.134 42.079 153.95 41.527 151.55 41.527C149.102 41.527 146.894 42.079 144.926 43.183C143.006 44.287 141.47 45.871 140.318 47.935C139.214 49.951 138.662 52.279 138.662 54.919C138.662 57.559 139.214 59.911 140.318 61.975C141.47 63.991 143.006 65.575 144.926 66.727C146.894 67.831 149.102 68.383 151.55 68.383ZM209.412 55.135C209.412 55.663 209.364 56.359 209.268 57.223H178.308C178.74 60.583 180.204 63.295 182.7 65.359C185.244 67.375 188.388 68.383 192.132 68.383C196.692 68.383 200.364 66.847 203.148 63.775L206.964 68.239C205.236 70.255 203.076 71.791 200.484 72.847C197.94 73.903 195.084 74.431 191.916 74.431C187.884 74.431 184.308 73.615 181.188 71.983C178.068 70.303 175.644 67.975 173.916 64.999C172.236 62.023 171.396 58.663 171.396 54.919C171.396 51.223 172.212 47.887 173.844 44.911C175.524 41.935 177.804 39.631 180.684 37.999C183.612 36.319 186.9 35.479 190.548 35.479C194.196 35.479 197.436 36.319 200.268 37.999C203.148 39.631 205.38 41.935 206.964 44.911C208.596 47.887 209.412 51.295 209.412 55.135ZM190.548 41.311C187.236 41.311 184.452 42.319 182.196 44.335C179.988 46.351 178.692 48.991 178.308 52.255H202.788C202.404 49.039 201.084 46.423 198.828 44.407C196.62 42.343 193.86 41.311 190.548 41.311Z" fill="url(#paint4_linear)"/>
<path d="M297.29 35.479C302.09 35.479 305.882 36.871 308.666 39.655C311.498 42.439 312.914 46.567 312.914 52.039V73.999H306.002V52.831C306.002 49.135 305.138 46.351 303.41 44.479C301.73 42.607 299.306 41.671 296.138 41.671C292.634 41.671 289.85 42.775 287.786 44.983C285.722 47.143 284.69 50.263 284.69 54.343V73.999H277.778V52.831C277.778 49.135 276.914 46.351 275.186 44.479C273.506 42.607 271.082 41.671 267.914 41.671C264.41 41.671 261.626 42.775 259.562 44.983C257.498 47.143 256.466 50.263 256.466 54.343V73.999H249.554V35.839H256.178V41.527C257.57 39.559 259.394 38.071 261.65 37.063C263.906 36.007 266.474 35.479 269.354 35.479C272.33 35.479 274.97 36.079 277.274 37.279C279.578 38.479 281.354 40.231 282.602 42.535C284.042 40.327 286.034 38.599 288.578 37.351C291.17 36.103 294.074 35.479 297.29 35.479ZM316.272 35.839H323.184V73.999H316.272V35.839ZM319.728 28.495C318.384 28.495 317.256 28.063 316.344 27.199C315.48 26.335 315.048 25.279 315.048 24.031C315.048 22.783 315.48 21.727 316.344 20.863C317.256 19.951 318.384 19.495 319.728 19.495C321.072 19.495 322.176 19.927 323.04 20.791C323.952 21.607 324.408 22.639 324.408 23.887C324.408 25.183 323.952 26.287 323.04 27.199C322.176 28.063 321.072 28.495 319.728 28.495ZM347.397 35.479C352.245 35.479 356.085 36.895 358.917 39.727C361.797 42.511 363.237 46.615 363.237 52.039V73.999H356.325V52.831C356.325 49.135 355.437 46.351 353.661 44.479C351.885 42.607 349.341 41.671 346.029 41.671C342.285 41.671 339.333 42.775 337.173 44.983C335.013 47.143 333.933 50.263 333.933 54.343V73.999H327.021V35.839H333.645V41.599C335.037 39.631 336.909 38.119 339.261 37.063C341.661 36.007 344.373 35.479 347.397 35.479ZM366.669 35.839H373.581V73.999H366.669V35.839ZM370.125 28.495C368.781 28.495 367.653 28.063 366.741 27.199C365.877 26.335 365.445 25.279 365.445 24.031C365.445 22.783 365.877 21.727 366.741 20.863C367.653 19.951 368.781 19.495 370.125 19.495C371.469 19.495 372.573 19.927 373.437 20.791C374.349 21.607 374.805 22.639 374.805 23.887C374.805 25.183 374.349 26.287 373.437 27.199C372.573 28.063 371.469 28.495 370.125 28.495ZM397.794 35.479C402.642 35.479 406.482 36.895 409.314 39.727C412.194 42.511 413.634 46.615 413.634 52.039V73.999H406.722V52.831C406.722 49.135 405.834 46.351 404.058 44.479C402.282 42.607 399.738 41.671 396.426 41.671C392.682 41.671 389.73 42.775 387.57 44.983C385.41 47.143 384.33 50.263 384.33 54.343V73.999H377.418V35.839H384.042V41.599C385.434 39.631 387.306 38.119 389.658 37.063C392.058 36.007 394.77 35.479 397.794 35.479ZM453.781 35.839V68.815C453.781 75.487 452.125 80.407 448.813 83.575C445.501 86.791 440.557 88.399 433.981 88.399C430.381 88.399 426.949 87.895 423.685 86.887C420.421 85.927 417.781 84.535 415.765 82.711L419.077 77.383C420.853 78.919 423.037 80.119 425.629 80.983C428.269 81.895 430.981 82.351 433.765 82.351C438.229 82.351 441.517 81.295 443.629 79.183C445.789 77.071 446.869 73.855 446.869 69.535V66.511C445.237 68.479 443.221 69.967 440.821 70.975C438.469 71.935 435.901 72.415 433.117 72.415C429.469 72.415 426.157 71.647 423.181 70.111C420.253 68.527 417.949 66.343 416.269 63.559C414.589 60.727 413.749 57.511 413.749 53.911C413.749 50.311 414.589 47.119 416.269 44.335C417.949 41.503 420.253 39.319 423.181 37.783C426.157 36.247 429.469 35.479 433.117 35.479C435.997 35.479 438.661 36.007 441.109 37.063C443.605 38.119 445.645 39.679 447.229 41.743V35.839H453.781ZM433.909 66.367C436.405 66.367 438.637 65.839 440.605 64.783C442.621 63.727 444.181 62.263 445.285 60.391C446.437 58.471 447.013 56.311 447.013 53.911C447.013 50.215 445.789 47.239 443.341 44.983C440.893 42.679 437.749 41.527 433.909 41.527C430.021 41.527 426.853 42.679 424.405 44.983C421.957 47.239 420.733 50.215 420.733 53.911C420.733 56.311 421.285 58.471 422.389 60.391C423.541 62.263 425.101 63.727 427.069 64.783C429.085 65.839 431.365 66.367 433.909 66.367ZM463.98 66.643H461.1V65.599H468.048V66.643H465.168V73.999H463.98V66.643ZM476.783 73.999L476.771 67.879L473.735 72.979H473.183L470.147 67.915V73.999H468.995V65.599H469.979L473.483 71.503L476.939 65.599H477.923L477.935 73.999H476.783Z" fill="url(#paint5_linear)"/>
</g>
<defs>
<filter id="filter0_d" x="176.036" y="0.645264" width="106.552" height="106.552" filterUnits="userSpaceOnUse" color-interpolation-filters="sRGB">
<feFlood flood-opacity="0" result="BackgroundImageFix"/>
<feColorMatrix in="SourceAlpha" type="matrix" values="0 0 0 0 0 0 0 0 0 0 0 0 0 0 0 0 0 0 127 0"/>
<feOffset dy="3"/>
<feGaussianBlur stdDeviation="6.5"/>
<feColorMatrix type="matrix" values="0 0 0 0 0.0183963 0 0 0 0 0.0167002 0 0 0 0 0.0387499 0 0 0 0.13 0"/>
<feBlend mode="normal" in2="BackgroundImageFix" result="effect1_dropShadow"/>
<feBlend mode="normal" in="SourceGraphic" in2="effect1_dropShadow" result="shape"/>
</filter>
<filter id="filter1_d" x="0.599609" y="9.495" width="490.335" height="94.904" filterUnits="userSpaceOnUse" color-interpolation-filters="sRGB">
<feFlood flood-opacity="0" result="BackgroundImageFix"/>
<feColorMatrix in="SourceAlpha" type="matrix" values="0 0 0 0 0 0 0 0 0 0 0 0 0 0 0 0 0 0 127 0"/>
<feOffset dy="3"/>
<feGaussianBlur stdDeviation="6.5"/>
<feColorMatrix type="matrix" values="0 0 0 0 0.0183963 0 0 0 0 0.0167002 0 0 0 0 0.0387499 0 0 0 0.13 0"/>
<feBlend mode="normal" in2="BackgroundImageFix" result="effect1_dropShadow"/>
<feBlend mode="normal" in="SourceGraphic" in2="effect1_dropShadow" result="shape"/>
</filter>
<linearGradient id="paint0_linear" x1="210.576" y1="32.1843" x2="248.05" y2="69.6583" gradientUnits="userSpaceOnUse">
<stop stop-color="#1A2139"/>
<stop offset="1" stop-color="#352B5B"/>
</linearGradient>
<linearGradient id="paint1_linear" x1="210.576" y1="32.1843" x2="248.05" y2="69.6583" gradientUnits="userSpaceOnUse">
<stop stop-color="#1A2139"/>
<stop offset="1" stop-color="#352B5B"/>
</linearGradient>
<linearGradient id="paint2_linear" x1="210.351" y1="31.9606" x2="248.273" y2="69.8819" gradientUnits="userSpaceOnUse">
<stop stop-color="#1A2139"/>
<stop offset="1" stop-color="#352B5B"/>
</linearGradient>
<linearGradient id="paint3_linear" x1="210.351" y1="31.9606" x2="248.273" y2="69.8819" gradientUnits="userSpaceOnUse">
<stop stop-color="#1A2139"/>
<stop offset="1" stop-color="#352B5B"/>
</linearGradient>
<linearGradient id="paint4_linear" x1="244.5" y1="3.99902" x2="244.5" y2="91.999" gradientUnits="userSpaceOnUse">
<stop stop-color="#1A2139"/>
<stop offset="1" stop-color="#352B5B"/>
</linearGradient>
<linearGradient id="paint5_linear" x1="244.5" y1="3.99902" x2="244.5" y2="91.999" gradientUnits="userSpaceOnUse">
<stop stop-color="#606EA3"/>
<stop offset="1" stop-color="#4E4376"/>
</linearGradient>
</defs>
</svg>
