<svg width="287" height="63" viewBox="0 0 287 63" fill="none" xmlns="http://www.w3.org/2000/svg">
<g opacity="0.69" filter="url(#filter0_d)">
<path d="M26.856 20.32C29.32 20.32 31.528 20.864 33.48 21.952C35.432 23.04 36.952 24.56 38.04 26.512C39.16 28.464 39.72 30.72 39.72 33.28C39.72 35.84 39.16 38.112 38.04 40.096C36.952 42.048 35.432 43.568 33.48 44.656C31.528 45.744 29.32 46.288 26.856 46.288C24.968 46.288 23.24 45.92 21.672 45.184C20.104 44.448 18.808 43.376 17.784 41.968V46H13.368V10.384H17.976V24.4C19 23.056 20.28 22.048 21.816 21.376C23.352 20.672 25.032 20.32 26.856 20.32ZM26.472 42.256C28.104 42.256 29.56 41.888 30.84 41.152C32.152 40.384 33.176 39.328 33.912 37.984C34.68 36.608 35.064 35.04 35.064 33.28C35.064 31.52 34.68 29.968 33.912 28.624C33.176 27.248 32.152 26.192 30.84 25.456C29.56 24.72 28.104 24.352 26.472 24.352C24.872 24.352 23.416 24.72 22.104 25.456C20.792 26.192 19.768 27.248 19.032 28.624C18.296 29.968 17.928 31.52 17.928 33.28C17.928 35.04 18.296 36.608 19.032 37.984C19.768 39.328 20.792 40.384 22.104 41.152C23.416 41.888 24.872 42.256 26.472 42.256ZM39.8468 10.384H44.4548V46H39.8468V10.384ZM57.909 46.288C55.381 46.288 53.109 45.728 51.093 44.608C49.077 43.488 47.493 41.952 46.341 40C45.221 38.016 44.661 35.776 44.661 33.28C44.661 30.784 45.221 28.56 46.341 26.608C47.493 24.624 49.077 23.088 51.093 22C53.109 20.88 55.381 20.32 57.909 20.32C60.437 20.32 62.693 20.88 64.677 22C66.693 23.088 68.261 24.624 69.381 26.608C70.533 28.56 71.109 30.784 71.109 33.28C71.109 35.776 70.533 38.016 69.381 40C68.261 41.952 66.693 43.488 64.677 44.608C62.693 45.728 60.437 46.288 57.909 46.288ZM57.909 42.256C59.541 42.256 60.997 41.888 62.277 41.152C63.589 40.384 64.613 39.328 65.349 37.984C66.085 36.608 66.453 35.04 66.453 33.28C66.453 31.52 66.085 29.968 65.349 28.624C64.613 27.248 63.589 26.192 62.277 25.456C60.997 24.72 59.541 24.352 57.909 24.352C56.277 24.352 54.805 24.72 53.493 25.456C52.213 26.192 51.189 27.248 50.421 28.624C49.685 29.968 49.317 31.52 49.317 33.28C49.317 35.04 49.685 36.608 50.421 37.984C51.189 39.328 52.213 40.384 53.493 41.152C54.805 41.888 56.277 42.256 57.909 42.256ZM82.3298 46.288C79.7377 46.288 77.4177 45.728 75.3697 44.608C73.3537 43.488 71.7697 41.952 70.6177 40C69.4657 38.016 68.8897 35.776 68.8897 33.28C68.8897 30.784 69.4657 28.56 70.6177 26.608C71.7697 24.624 73.3537 23.088 75.3697 22C77.4177 20.88 79.7377 20.32 82.3298 20.32C84.6337 20.32 86.6817 20.784 88.4737 21.712C90.2977 22.64 91.7058 23.984 92.6978 25.744L89.1938 28C88.3938 26.784 87.4018 25.872 86.2178 25.264C85.0338 24.656 83.7217 24.352 82.2817 24.352C80.6177 24.352 79.1137 24.72 77.7697 25.456C76.4577 26.192 75.4177 27.248 74.6497 28.624C73.9137 29.968 73.5457 31.52 73.5457 33.28C73.5457 35.072 73.9137 36.656 74.6497 38.032C75.4177 39.376 76.4577 40.416 77.7697 41.152C79.1137 41.888 80.6177 42.256 82.2817 42.256C83.7217 42.256 85.0338 41.952 86.2178 41.344C87.4018 40.736 88.3938 39.824 89.1938 38.608L92.6978 40.816C91.7058 42.576 90.2977 43.936 88.4737 44.896C86.6817 45.824 84.6337 46.288 82.3298 46.288ZM101.984 34.144L96.7035 39.04V46H92.0955V10.384H96.7035V33.232L110.576 20.56H116.144L105.44 31.072L117.2 46H111.536L101.984 34.144ZM126.5 24.832C127.3 23.36 128.484 22.24 130.052 21.472C131.62 20.704 133.524 20.32 135.764 20.32V24.784C135.508 24.752 135.156 24.736 134.708 24.736C132.212 24.736 130.244 25.488 128.804 26.992C127.396 28.464 126.692 30.576 126.692 33.328V46H122.084V20.56H126.5V24.832ZM157.961 33.424C157.961 33.776 157.929 34.24 157.865 34.816H137.225C137.513 37.056 138.489 38.864 140.153 40.24C141.849 41.584 143.945 42.256 146.441 42.256C149.481 42.256 151.929 41.232 153.785 39.184L156.329 42.16C155.177 43.504 153.737 44.528 152.009 45.232C150.313 45.936 148.409 46.288 146.297 46.288C143.609 46.288 141.225 45.744 139.145 44.656C137.065 43.536 135.449 41.984 134.297 40C133.177 38.016 132.617 35.776 132.617 33.28C132.617 30.816 133.161 28.592 134.249 26.608C135.369 24.624 136.889 23.088 138.809 22C140.761 20.88 142.953 20.32 145.385 20.32C147.817 20.32 149.977 20.88 151.865 22C153.785 23.088 155.273 24.624 156.329 26.608C157.417 28.592 157.961 30.864 157.961 33.424ZM145.385 24.208C143.177 24.208 141.321 24.88 139.817 26.224C138.345 27.568 137.481 29.328 137.225 31.504H153.545C153.289 29.36 152.409 27.616 150.905 26.272C149.433 24.896 147.593 24.208 145.385 24.208ZM196.147 20.56L186.643 46H182.227L174.883 26.704L167.443 46H163.027L153.571 20.56H157.939L165.331 40.816L173.011 20.56H176.899L184.435 40.912L192.019 20.56H196.147ZM203.05 20.32C206.57 20.32 209.258 21.184 211.114 22.912C213.002 24.64 213.946 27.216 213.946 30.64V46H209.578V42.64C208.81 43.824 207.706 44.736 206.266 45.376C204.858 45.984 203.178 46.288 201.226 46.288C198.378 46.288 196.09 45.6 194.362 44.224C192.666 42.848 191.818 41.04 191.818 38.8C191.818 36.56 192.634 34.768 194.266 33.424C195.898 32.048 198.49 31.36 202.042 31.36H209.338V30.448C209.338 28.464 208.762 26.944 207.61 25.888C206.458 24.832 204.762 24.304 202.522 24.304C201.018 24.304 199.546 24.56 198.106 25.072C196.666 25.552 195.45 26.208 194.458 27.04L192.538 23.584C193.85 22.528 195.418 21.728 197.242 21.184C199.066 20.608 201.002 20.32 203.05 20.32ZM201.994 42.736C203.754 42.736 205.274 42.352 206.554 41.584C207.834 40.784 208.762 39.664 209.338 38.224V34.672H202.234C198.33 34.672 196.378 35.984 196.378 38.608C196.378 39.888 196.874 40.896 197.866 41.632C198.858 42.368 200.234 42.736 201.994 42.736ZM220.65 24.832C221.45 23.36 222.634 22.24 224.202 21.472C225.77 20.704 227.674 20.32 229.914 20.32V24.784C229.658 24.752 229.306 24.736 228.858 24.736C226.362 24.736 224.394 25.488 222.954 26.992C221.546 28.464 220.842 30.576 220.842 33.328V46H216.234V20.56H220.65V24.832ZM253.119 10.384V46H248.703V41.968C247.679 43.376 246.383 44.448 244.815 45.184C243.247 45.92 241.519 46.288 239.631 46.288C237.167 46.288 234.959 45.744 233.007 44.656C231.055 43.568 229.519 42.048 228.399 40.096C227.311 38.112 226.767 35.84 226.767 33.28C226.767 30.72 227.311 28.464 228.399 26.512C229.519 24.56 231.055 23.04 233.007 21.952C234.959 20.864 237.167 20.32 239.631 20.32C241.455 20.32 243.135 20.672 244.671 21.376C246.207 22.048 247.487 23.056 248.511 24.4V10.384H253.119ZM240.015 42.256C241.615 42.256 243.071 41.888 244.383 41.152C245.695 40.384 246.719 39.328 247.455 37.984C248.191 36.608 248.559 35.04 248.559 33.28C248.559 31.52 248.191 29.968 247.455 28.624C246.719 27.248 245.695 26.192 244.383 25.456C243.071 24.72 241.615 24.352 240.015 24.352C238.383 24.352 236.911 24.72 235.599 25.456C234.319 26.192 233.295 27.248 232.527 28.624C231.791 29.968 231.423 31.52 231.423 33.28C231.423 35.04 231.791 36.608 232.527 37.984C233.295 39.328 234.319 40.384 235.599 41.152C236.911 41.888 238.383 42.256 240.015 42.256ZM262.893 46.288C260.813 46.288 258.813 46.016 256.893 45.472C254.973 44.896 253.469 44.176 252.381 43.312L254.301 39.664C255.421 40.464 256.781 41.104 258.381 41.584C259.981 42.064 261.597 42.304 263.229 42.304C267.261 42.304 269.277 41.152 269.277 38.848C269.277 38.08 269.005 37.472 268.461 37.024C267.917 36.576 267.229 36.256 266.397 36.064C265.597 35.84 264.445 35.6 262.941 35.344C260.893 35.024 259.213 34.656 257.901 34.24C256.621 33.824 255.517 33.12 254.589 32.128C253.661 31.136 253.197 29.744 253.197 27.952C253.197 25.648 254.157 23.808 256.077 22.432C257.997 21.024 260.573 20.32 263.805 20.32C265.501 20.32 267.197 20.528 268.893 20.944C270.589 21.36 271.981 21.92 273.069 22.624L271.101 26.272C269.021 24.928 266.573 24.256 263.757 24.256C261.805 24.256 260.317 24.576 259.293 25.216C258.269 25.856 257.757 26.704 257.757 27.76C257.757 28.592 258.045 29.248 258.621 29.728C259.197 30.208 259.901 30.56 260.733 30.784C261.597 31.008 262.797 31.264 264.333 31.552C266.381 31.904 268.029 32.288 269.277 32.704C270.557 33.088 271.645 33.76 272.541 34.72C273.437 35.68 273.885 37.024 273.885 38.752C273.885 41.056 272.893 42.896 270.909 44.272C268.957 45.616 266.285 46.288 262.893 46.288Z" fill="url(#paint0_linear)"/>
</g>
<defs>
<filter id="filter0_d" x="0.368164" y="0.384033" width="286.517" height="61.904" filterUnits="userSpaceOnUse" color-interpolation-filters="sRGB">
<feFlood flood-opacity="0" result="BackgroundImageFix"/>
<feColorMatrix in="SourceAlpha" type="matrix" values="0 0 0 0 0 0 0 0 0 0 0 0 0 0 0 0 0 0 127 0"/>
<feOffset dy="3"/>
<feGaussianBlur stdDeviation="6.5"/>
<feColorMatrix type="matrix" values="0 0 0 0 0.0183963 0 0 0 0 0.0167002 0 0 0 0 0.0387499 0 0 0 0.13 0"/>
<feBlend mode="normal" in2="BackgroundImageFix" result="effect1_dropShadow"/>
<feBlend mode="normal" in="SourceGraphic" in2="effect1_dropShadow" result="shape"/>
</filter>
<linearGradient id="paint0_linear" x1="139.5" y1="0" x2="139.5" y2="59" gradientUnits="userSpaceOnUse">
<stop stop-color="#606EA3"/>
<stop offset="1" stop-color="#4E4376"/>
</linearGradient>
</defs>
</svg>
