<svg width="400" height="76" viewBox="0 0 400 76" fill="none" xmlns="http://www.w3.org/2000/svg">
<g filter="url(#filter0_d)">
<path d="M277.748 59.216C276.188 59.216 274.688 59.012 273.248 58.604C271.808 58.172 270.68 57.632 269.864 56.984L271.304 54.248C272.144 54.848 273.164 55.328 274.364 55.688C275.564 56.048 276.776 56.228 278 56.228C281.024 56.228 282.536 55.364 282.536 53.636C282.536 53.06 282.332 52.604 281.924 52.268C281.516 51.932 281 51.692 280.376 51.548C279.776 51.38 278.912 51.2 277.784 51.008C276.248 50.768 274.988 50.492 274.004 50.18C273.044 49.868 272.216 49.34 271.52 48.596C270.824 47.852 270.476 46.808 270.476 45.464C270.476 43.736 271.196 42.356 272.636 41.324C274.076 40.268 276.008 39.74 278.432 39.74C279.704 39.74 280.976 39.896 282.248 40.208C283.52 40.52 284.564 40.94 285.38 41.468L283.904 44.204C282.344 43.196 280.508 42.692 278.396 42.692C276.932 42.692 275.816 42.932 275.048 43.412C274.28 43.892 273.896 44.528 273.896 45.32C273.896 45.944 274.112 46.436 274.544 46.796C274.976 47.156 275.504 47.42 276.128 47.588C276.776 47.756 277.676 47.948 278.828 48.164C280.364 48.428 281.6 48.716 282.536 49.028C283.496 49.316 284.312 49.82 284.984 50.54C285.656 51.26 285.992 52.268 285.992 53.564C285.992 55.292 285.248 56.672 283.76 57.704C282.296 58.712 280.292 59.216 277.748 59.216ZM296.359 57.884C295.855 58.316 295.231 58.652 294.487 58.892C293.743 59.108 292.975 59.216 292.183 59.216C290.263 59.216 288.775 58.7 287.719 57.668C286.663 56.636 286.135 55.16 286.135 53.24V42.764H282.895V39.92H286.135V35.744H289.591V39.92H295.063V42.764H289.591V53.096C289.591 54.128 289.843 54.92 290.347 55.472C290.875 56.024 291.619 56.3 292.579 56.3C293.635 56.3 294.535 56 295.279 55.4L296.359 57.884ZM302.805 39.74C305.445 39.74 307.461 40.388 308.853 41.684C310.269 42.98 310.977 44.912 310.977 47.48V59H307.701V56.48C307.125 57.368 306.297 58.052 305.217 58.532C304.161 58.988 302.901 59.216 301.437 59.216C299.301 59.216 297.585 58.7 296.289 57.668C295.017 56.636 294.381 55.28 294.381 53.6C294.381 51.92 294.993 50.576 296.217 49.568C297.441 48.536 299.385 48.02 302.049 48.02H307.521V47.336C307.521 45.848 307.089 44.708 306.225 43.916C305.361 43.124 304.089 42.728 302.409 42.728C301.281 42.728 300.177 42.92 299.097 43.304C298.017 43.664 297.105 44.156 296.361 44.78L294.921 42.188C295.905 41.396 297.081 40.796 298.449 40.388C299.817 39.956 301.269 39.74 302.805 39.74ZM302.013 56.552C303.333 56.552 304.473 56.264 305.433 55.688C306.393 55.088 307.089 54.248 307.521 53.168V50.504H302.193C299.265 50.504 297.801 51.488 297.801 53.456C297.801 54.416 298.173 55.172 298.917 55.724C299.661 56.276 300.693 56.552 302.013 56.552ZM323.421 57.884C322.917 58.316 322.293 58.652 321.549 58.892C320.805 59.108 320.037 59.216 319.245 59.216C317.325 59.216 315.837 58.7 314.781 57.668C313.725 56.636 313.197 55.16 313.197 53.24V42.764H309.957V39.92H313.197V35.744H316.653V39.92H322.125V42.764H316.653V53.096C316.653 54.128 316.905 54.92 317.409 55.472C317.937 56.024 318.681 56.3 319.641 56.3C320.697 56.3 321.597 56 322.341 55.4L323.421 57.884ZM322.919 39.92H326.375V59H322.919V39.92ZM324.647 36.248C323.975 36.248 323.411 36.032 322.955 35.6C322.523 35.168 322.307 34.64 322.307 34.016C322.307 33.392 322.523 32.864 322.955 32.432C323.411 31.976 323.975 31.748 324.647 31.748C325.319 31.748 325.871 31.964 326.303 32.396C326.759 32.804 326.987 33.32 326.987 33.944C326.987 34.592 326.759 35.144 326.303 35.6C325.871 36.032 325.319 36.248 324.647 36.248ZM333.766 59.216C332.206 59.216 330.706 59.012 329.266 58.604C327.826 58.172 326.698 57.632 325.882 56.984L327.322 54.248C328.162 54.848 329.182 55.328 330.382 55.688C331.582 56.048 332.794 56.228 334.018 56.228C337.042 56.228 338.554 55.364 338.554 53.636C338.554 53.06 338.35 52.604 337.942 52.268C337.534 51.932 337.018 51.692 336.394 51.548C335.794 51.38 334.93 51.2 333.802 51.008C332.266 50.768 331.006 50.492 330.022 50.18C329.062 49.868 328.234 49.34 327.538 48.596C326.842 47.852 326.494 46.808 326.494 45.464C326.494 43.736 327.214 42.356 328.654 41.324C330.094 40.268 332.026 39.74 334.45 39.74C335.722 39.74 336.994 39.896 338.266 40.208C339.538 40.52 340.582 40.94 341.398 41.468L339.922 44.204C338.362 43.196 336.526 42.692 334.414 42.692C332.95 42.692 331.834 42.932 331.066 43.412C330.298 43.892 329.914 44.528 329.914 45.32C329.914 45.944 330.13 46.436 330.562 46.796C330.994 47.156 331.522 47.42 332.146 47.588C332.794 47.756 333.694 47.948 334.846 48.164C336.382 48.428 337.618 48.716 338.554 49.028C339.514 49.316 340.33 49.82 341.002 50.54C341.674 51.26 342.01 52.268 342.01 53.564C342.01 55.292 341.266 56.672 339.778 57.704C338.314 58.712 336.31 59.216 333.766 59.216ZM352.377 57.884C351.873 58.316 351.249 58.652 350.505 58.892C349.761 59.108 348.993 59.216 348.201 59.216C346.281 59.216 344.793 58.7 343.737 57.668C342.681 56.636 342.153 55.16 342.153 53.24V42.764H338.913V39.92H342.153V35.744H345.609V39.92H351.081V42.764H345.609V53.096C345.609 54.128 345.861 54.92 346.365 55.472C346.893 56.024 347.637 56.3 348.597 56.3C349.653 56.3 350.553 56 351.297 55.4L352.377 57.884ZM351.875 39.92H355.331V59H351.875V39.92ZM353.603 36.248C352.931 36.248 352.367 36.032 351.911 35.6C351.479 35.168 351.263 34.64 351.263 34.016C351.263 33.392 351.479 32.864 351.911 32.432C352.367 31.976 352.931 31.748 353.603 31.748C354.275 31.748 354.827 31.964 355.259 32.396C355.715 32.804 355.943 33.32 355.943 33.944C355.943 34.592 355.715 35.144 355.259 35.6C354.827 36.032 354.275 36.248 353.603 36.248ZM365.566 59.216C363.622 59.216 361.882 58.796 360.346 57.956C358.834 57.116 357.646 55.964 356.782 54.5C355.918 53.012 355.486 51.332 355.486 49.46C355.486 47.588 355.918 45.92 356.782 44.456C357.646 42.968 358.834 41.816 360.346 41C361.882 40.16 363.622 39.74 365.566 39.74C367.294 39.74 368.83 40.088 370.174 40.784C371.542 41.48 372.598 42.488 373.342 43.808L370.714 45.5C370.114 44.588 369.37 43.904 368.482 43.448C367.594 42.992 366.61 42.764 365.53 42.764C364.282 42.764 363.154 43.04 362.146 43.592C361.162 44.144 360.382 44.936 359.806 45.968C359.254 46.976 358.978 48.14 358.978 49.46C358.978 50.804 359.254 51.992 359.806 53.024C360.382 54.032 361.162 54.812 362.146 55.364C363.154 55.916 364.282 56.192 365.53 56.192C366.61 56.192 367.594 55.964 368.482 55.508C369.37 55.052 370.114 54.368 370.714 53.456L373.342 55.112C372.598 56.432 371.542 57.452 370.174 58.172C368.83 58.868 367.294 59.216 365.566 59.216ZM378.608 59.216C377.048 59.216 375.548 59.012 374.108 58.604C372.668 58.172 371.54 57.632 370.724 56.984L372.164 54.248C373.004 54.848 374.024 55.328 375.224 55.688C376.424 56.048 377.636 56.228 378.86 56.228C381.884 56.228 383.396 55.364 383.396 53.636C383.396 53.06 383.192 52.604 382.784 52.268C382.376 51.932 381.86 51.692 381.236 51.548C380.636 51.38 379.772 51.2 378.644 51.008C377.108 50.768 375.848 50.492 374.864 50.18C373.904 49.868 373.076 49.34 372.38 48.596C371.684 47.852 371.336 46.808 371.336 45.464C371.336 43.736 372.056 42.356 373.496 41.324C374.936 40.268 376.868 39.74 379.292 39.74C380.564 39.74 381.836 39.896 383.108 40.208C384.38 40.52 385.424 40.94 386.24 41.468L384.764 44.204C383.204 43.196 381.368 42.692 379.256 42.692C377.792 42.692 376.676 42.932 375.908 43.412C375.14 43.892 374.756 44.528 374.756 45.32C374.756 45.944 374.972 46.436 375.404 46.796C375.836 47.156 376.364 47.42 376.988 47.588C377.636 47.756 378.536 47.948 379.688 48.164C381.224 48.428 382.46 48.716 383.396 49.028C384.356 49.316 385.172 49.82 385.844 50.54C386.516 51.26 386.852 52.268 386.852 53.564C386.852 55.292 386.108 56.672 384.62 57.704C383.156 58.712 381.152 59.216 378.608 59.216Z" fill="url(#paint0_linear)"/>
</g>
<g opacity="0.69" filter="url(#filter1_d)">
<path d="M31.352 59.384C27.9813 59.384 24.952 58.6373 22.264 57.144C19.576 55.6507 17.464 53.6027 15.928 51C14.4347 48.3547 13.688 45.368 13.688 42.04C13.688 38.712 14.4347 35.7467 15.928 33.144C17.464 30.4987 19.576 28.4507 22.264 27C24.952 25.5067 27.9813 24.76 31.352 24.76C34.7227 24.76 37.7307 25.5067 40.376 27C43.064 28.4507 45.1547 30.4987 46.648 33.144C48.184 35.7467 48.952 38.712 48.952 42.04C48.952 45.368 48.184 48.3547 46.648 51C45.1547 53.6027 43.064 55.6507 40.376 57.144C37.7307 58.6373 34.7227 59.384 31.352 59.384ZM31.352 54.008C33.528 54.008 35.4693 53.5173 37.176 52.536C38.9253 51.512 40.2907 50.104 41.272 48.312C42.2533 46.4773 42.744 44.3867 42.744 42.04C42.744 39.6933 42.2533 37.624 41.272 35.832C40.2907 33.9973 38.9253 32.5893 37.176 31.608C35.4693 30.6267 33.528 30.136 31.352 30.136C29.176 30.136 27.2133 30.6267 25.464 31.608C23.7573 32.5893 22.392 33.9973 21.368 35.832C20.3867 37.624 19.896 39.6933 19.896 42.04C19.896 44.3867 20.3867 46.4773 21.368 48.312C22.392 50.104 23.7573 51.512 25.464 52.536C27.2133 53.5173 29.176 54.008 31.352 54.008ZM78.2075 25.08L63.3595 59H57.0875L42.2395 25.08H48.6395L60.2875 52.28L72.1915 25.08H78.2075ZM105.34 42.232C105.34 42.7013 105.297 43.32 105.212 44.088H77.692C78.076 47.0747 79.3773 49.4853 81.596 51.32C83.8573 53.112 86.652 54.008 89.98 54.008C94.0333 54.008 97.2973 52.6427 99.772 49.912L103.164 53.88C101.628 55.672 99.708 57.0373 97.404 57.976C95.1427 58.9147 92.604 59.384 89.788 59.384C86.204 59.384 83.0253 58.6587 80.252 57.208C77.4787 55.7147 75.324 53.6453 73.788 51C72.2947 48.3547 71.548 45.368 71.548 42.04C71.548 38.7547 72.2733 35.7893 73.724 33.144C75.2173 30.4987 77.244 28.4507 79.804 27C82.4067 25.5067 85.3293 24.76 88.572 24.76C91.8147 24.76 94.6947 25.5067 97.212 27C99.772 28.4507 101.756 30.4987 103.164 33.144C104.615 35.7893 105.34 38.8187 105.34 42.232ZM88.572 29.944C85.628 29.944 83.1533 30.84 81.148 32.632C79.1853 34.424 78.0333 36.7707 77.692 39.672H99.452C99.1107 36.8133 97.9373 34.488 95.932 32.696C93.9693 30.8613 91.516 29.944 88.572 29.944ZM111.44 30.776C112.506 28.8133 114.085 27.32 116.176 26.296C118.266 25.272 120.805 24.76 123.792 24.76V30.712C123.45 30.6693 122.981 30.648 122.384 30.648C119.056 30.648 116.432 31.6507 114.512 33.656C112.634 35.6187 111.696 38.4347 111.696 42.104V59H105.552V25.08H111.44V30.776ZM154.435 25.08L139.587 59H133.315L118.467 25.08H124.867L136.515 52.28L148.419 25.08H154.435ZM151.849 25.08H157.993V59H151.849V25.08ZM154.921 18.552C153.726 18.552 152.724 18.168 151.913 17.4C151.145 16.632 150.761 15.6933 150.761 14.584C150.761 13.4747 151.145 12.536 151.913 11.768C152.724 10.9573 153.726 10.552 154.921 10.552C156.116 10.552 157.097 10.936 157.865 11.704C158.676 12.4293 159.081 13.3467 159.081 14.456C159.081 15.608 158.676 16.5893 157.865 17.4C157.097 18.168 156.116 18.552 154.921 18.552ZM192.06 42.232C192.06 42.7013 192.017 43.32 191.932 44.088H164.412C164.796 47.0747 166.097 49.4853 168.316 51.32C170.577 53.112 173.372 54.008 176.7 54.008C180.753 54.008 184.017 52.6427 186.492 49.912L189.884 53.88C188.348 55.672 186.428 57.0373 184.124 57.976C181.863 58.9147 179.324 59.384 176.508 59.384C172.924 59.384 169.745 58.6587 166.972 57.208C164.199 55.7147 162.044 53.6453 160.508 51C159.015 48.3547 158.268 45.368 158.268 42.04C158.268 38.7547 158.993 35.7893 160.444 33.144C161.937 30.4987 163.964 28.4507 166.524 27C169.127 25.5067 172.049 24.76 175.292 24.76C178.535 24.76 181.415 25.5067 183.932 27C186.492 28.4507 188.476 30.4987 189.884 33.144C191.335 35.7893 192.06 38.8187 192.06 42.232ZM175.292 29.944C172.348 29.944 169.873 30.84 167.868 32.632C165.905 34.424 164.753 36.7707 164.412 39.672H186.172C185.831 36.8133 184.657 34.488 182.652 32.696C180.689 30.8613 178.236 29.944 175.292 29.944ZM242.975 25.08L230.303 59H224.415L214.623 33.272L204.703 59H198.815L186.207 25.08H192.031L201.887 52.088L212.127 25.08H217.311L227.359 52.216L237.471 25.08H242.975Z" fill="url(#paint1_linear)"/>
</g>
<defs>
<filter id="filter0_d" x="256.863" y="21.748" width="142.988" height="53.468" filterUnits="userSpaceOnUse" color-interpolation-filters="sRGB">
<feFlood flood-opacity="0" result="BackgroundImageFix"/>
<feColorMatrix in="SourceAlpha" type="matrix" values="0 0 0 0 0 0 0 0 0 0 0 0 0 0 0 0 0 0 127 0"/>
<feOffset dy="3"/>
<feGaussianBlur stdDeviation="6.5"/>
<feColorMatrix type="matrix" values="0 0 0 0 0.0183963 0 0 0 0 0.0167002 0 0 0 0 0.0387499 0 0 0 0.13 0"/>
<feBlend mode="normal" in2="BackgroundImageFix" result="effect1_dropShadow"/>
<feBlend mode="normal" in="SourceGraphic" in2="effect1_dropShadow" result="shape"/>
</filter>
<filter id="filter1_d" x="0.6875" y="0.552002" width="255.287" height="74.832" filterUnits="userSpaceOnUse" color-interpolation-filters="sRGB">
<feFlood flood-opacity="0" result="BackgroundImageFix"/>
<feColorMatrix in="SourceAlpha" type="matrix" values="0 0 0 0 0 0 0 0 0 0 0 0 0 0 0 0 0 0 127 0"/>
<feOffset dy="3"/>
<feGaussianBlur stdDeviation="6.5"/>
<feColorMatrix type="matrix" values="0 0 0 0 0.0183963 0 0 0 0 0.0167002 0 0 0 0 0.0387499 0 0 0 0.13 0"/>
<feBlend mode="normal" in2="BackgroundImageFix" result="effect1_dropShadow"/>
<feBlend mode="normal" in="SourceGraphic" in2="effect1_dropShadow" result="shape"/>
</filter>
<linearGradient id="paint0_linear" x1="328.5" y1="24" x2="328.5" y2="68" gradientUnits="userSpaceOnUse">
<stop stop-color="#1A2139"/>
<stop offset="1" stop-color="#352B5B"/>
</linearGradient>
<linearGradient id="paint1_linear" x1="123.5" y1="-3" x2="123.5" y2="76" gradientUnits="userSpaceOnUse">
<stop stop-color="#606EA3"/>
<stop offset="1" stop-color="#4E4376"/>
</linearGradient>
</defs>
</svg>
