<svg width="258" height="73" viewBox="0 0 258 73" fill="none" xmlns="http://www.w3.org/2000/svg">
<g opacity="0.69" filter="url(#filter0_d)">
<path d="M45.192 21.32C48.392 21.32 50.92 22.248 52.776 24.104C54.664 25.96 55.608 28.712 55.608 32.36V47H51V32.888C51 30.424 50.424 28.568 49.272 27.32C48.152 26.072 46.536 25.448 44.424 25.448C42.088 25.448 40.232 26.184 38.856 27.656C37.48 29.096 36.792 31.176 36.792 33.896V47H32.184V32.888C32.184 30.424 31.608 28.568 30.456 27.32C29.336 26.072 27.72 25.448 25.608 25.448C23.272 25.448 21.416 26.184 20.04 27.656C18.664 29.096 17.976 31.176 17.976 33.896V47H13.368V21.56H17.784V25.352C18.712 24.04 19.928 23.048 21.432 22.376C22.936 21.672 24.648 21.32 26.568 21.32C28.552 21.32 30.312 21.72 31.848 22.52C33.384 23.32 34.568 24.488 35.4 26.024C36.36 24.552 37.688 23.4 39.384 22.568C41.112 21.736 43.048 21.32 45.192 21.32ZM57.8468 21.56H62.4548V47H57.8468V21.56ZM60.1508 16.664C59.2548 16.664 58.5028 16.376 57.8948 15.8C57.3188 15.224 57.0308 14.52 57.0308 13.688C57.0308 12.856 57.3188 12.152 57.8948 11.576C58.5028 10.968 59.2548 10.664 60.1508 10.664C61.0468 10.664 61.7828 10.952 62.3588 11.528C62.9668 12.072 63.2708 12.76 63.2708 13.592C63.2708 14.456 62.9668 15.192 62.3588 15.8C61.7828 16.376 61.0468 16.664 60.1508 16.664ZM78.597 21.32C81.829 21.32 84.389 22.264 86.277 24.152C88.197 26.008 89.157 28.744 89.157 32.36V47H84.549V32.888C84.549 30.424 83.957 28.568 82.773 27.32C81.589 26.072 79.893 25.448 77.685 25.448C75.189 25.448 73.221 26.184 71.781 27.656C70.341 29.096 69.621 31.176 69.621 33.896V47H65.013V21.56H69.429V25.4C70.357 24.088 71.605 23.08 73.173 22.376C74.773 21.672 76.581 21.32 78.597 21.32ZM91.4449 21.56H96.0529V47H91.4449V21.56ZM93.7489 16.664C92.8529 16.664 92.1009 16.376 91.4929 15.8C90.9169 15.224 90.6289 14.52 90.6289 13.688C90.6289 12.856 90.9169 12.152 91.4929 11.576C92.1009 10.968 92.8529 10.664 93.7489 10.664C94.6449 10.664 95.3809 10.952 95.9569 11.528C96.5649 12.072 96.8689 12.76 96.8689 13.592C96.8689 14.456 96.5649 15.192 95.9569 15.8C95.3809 16.376 94.6449 16.664 93.7489 16.664ZM112.195 21.32C115.427 21.32 117.987 22.264 119.875 24.152C121.795 26.008 122.755 28.744 122.755 32.36V47H118.147V32.888C118.147 30.424 117.555 28.568 116.371 27.32C115.187 26.072 113.491 25.448 111.283 25.448C108.787 25.448 106.819 26.184 105.379 27.656C103.939 29.096 103.219 31.176 103.219 33.896V47H98.6111V21.56H103.027V25.4C103.955 24.088 105.203 23.08 106.771 22.376C108.371 21.672 110.179 21.32 112.195 21.32ZM149.52 21.56V43.544C149.52 47.992 148.416 51.272 146.208 53.384C144 55.528 140.704 56.6 136.32 56.6C133.92 56.6 131.632 56.264 129.456 55.592C127.28 54.952 125.52 54.024 124.176 52.808L126.384 49.256C127.568 50.28 129.024 51.08 130.752 51.656C132.512 52.264 134.32 52.568 136.176 52.568C139.152 52.568 141.344 51.864 142.752 50.456C144.192 49.048 144.912 46.904 144.912 44.024V42.008C143.824 43.32 142.48 44.312 140.88 44.984C139.312 45.624 137.6 45.944 135.744 45.944C133.312 45.944 131.104 45.432 129.12 44.408C127.168 43.352 125.632 41.896 124.512 40.04C123.392 38.152 122.832 36.008 122.832 33.608C122.832 31.208 123.392 29.08 124.512 27.224C125.632 25.336 127.168 23.88 129.12 22.856C131.104 21.832 133.312 21.32 135.744 21.32C137.664 21.32 139.44 21.672 141.072 22.376C142.736 23.08 144.096 24.12 145.152 25.496V21.56H149.52ZM136.272 41.912C137.936 41.912 139.424 41.56 140.736 40.856C142.08 40.152 143.12 39.176 143.856 37.928C144.624 36.648 145.008 35.208 145.008 33.608C145.008 31.144 144.192 29.16 142.56 27.656C140.928 26.12 138.832 25.352 136.272 25.352C133.68 25.352 131.568 26.12 129.936 27.656C128.304 29.16 127.488 31.144 127.488 33.608C127.488 35.208 127.856 36.648 128.592 37.928C129.36 39.176 130.4 40.152 131.712 40.856C133.056 41.56 134.576 41.912 136.272 41.912ZM166.031 47.288C163.951 47.288 161.951 47.016 160.031 46.472C158.111 45.896 156.607 45.176 155.519 44.312L157.439 40.664C158.559 41.464 159.919 42.104 161.519 42.584C163.119 43.064 164.735 43.304 166.367 43.304C170.399 43.304 172.415 42.152 172.415 39.848C172.415 39.08 172.143 38.472 171.599 38.024C171.055 37.576 170.367 37.256 169.535 37.064C168.735 36.84 167.583 36.6 166.079 36.344C164.031 36.024 162.351 35.656 161.039 35.24C159.759 34.824 158.655 34.12 157.727 33.128C156.799 32.136 156.335 30.744 156.335 28.952C156.335 26.648 157.295 24.808 159.215 23.432C161.135 22.024 163.711 21.32 166.943 21.32C168.639 21.32 170.335 21.528 172.031 21.944C173.727 22.36 175.119 22.92 176.207 23.624L174.239 27.272C172.159 25.928 169.711 25.256 166.895 25.256C164.943 25.256 163.455 25.576 162.431 26.216C161.407 26.856 160.895 27.704 160.895 28.76C160.895 29.592 161.183 30.248 161.759 30.728C162.335 31.208 163.039 31.56 163.871 31.784C164.735 32.008 165.935 32.264 167.471 32.552C169.519 32.904 171.167 33.288 172.415 33.704C173.695 34.088 174.783 34.76 175.679 35.72C176.575 36.68 177.023 38.024 177.023 39.752C177.023 42.056 176.031 43.896 174.047 45.272C172.095 46.616 169.423 47.288 166.031 47.288ZM190.846 45.512C190.174 46.088 189.342 46.536 188.35 46.856C187.358 47.144 186.334 47.288 185.278 47.288C182.718 47.288 180.734 46.6 179.326 45.224C177.918 43.848 177.214 41.88 177.214 39.32V25.352H172.894V21.56H177.214V15.992H181.822V21.56H189.118V25.352H181.822V39.128C181.822 40.504 182.158 41.56 182.83 42.296C183.534 43.032 184.526 43.4 185.806 43.4C187.214 43.4 188.414 43 189.406 42.2L190.846 45.512ZM199.441 21.32C202.961 21.32 205.649 22.184 207.505 23.912C209.393 25.64 210.337 28.216 210.337 31.64V47H205.969V43.64C205.201 44.824 204.097 45.736 202.657 46.376C201.249 46.984 199.569 47.288 197.617 47.288C194.769 47.288 192.481 46.6 190.753 45.224C189.057 43.848 188.209 42.04 188.209 39.8C188.209 37.56 189.025 35.768 190.657 34.424C192.289 33.048 194.881 32.36 198.433 32.36H205.729V31.448C205.729 29.464 205.153 27.944 204.001 26.888C202.849 25.832 201.153 25.304 198.913 25.304C197.409 25.304 195.937 25.56 194.497 26.072C193.057 26.552 191.841 27.208 190.849 28.04L188.929 24.584C190.241 23.528 191.809 22.728 193.633 22.184C195.457 21.608 197.393 21.32 199.441 21.32ZM198.385 43.736C200.145 43.736 201.665 43.352 202.945 42.584C204.225 41.784 205.153 40.664 205.729 39.224V35.672H198.625C194.721 35.672 192.769 36.984 192.769 39.608C192.769 40.888 193.265 41.896 194.257 42.632C195.249 43.368 196.625 43.736 198.385 43.736ZM226.928 45.512C226.256 46.088 225.424 46.536 224.432 46.856C223.44 47.144 222.416 47.288 221.36 47.288C218.8 47.288 216.816 46.6 215.408 45.224C214 43.848 213.296 41.88 213.296 39.32V25.352H208.976V21.56H213.296V15.992H217.904V21.56H225.2V25.352H217.904V39.128C217.904 40.504 218.24 41.56 218.912 42.296C219.616 43.032 220.608 43.4 221.888 43.4C223.296 43.4 224.496 43 225.488 42.2L226.928 45.512ZM233.555 47.288C231.475 47.288 229.475 47.016 227.555 46.472C225.635 45.896 224.131 45.176 223.043 44.312L224.963 40.664C226.083 41.464 227.443 42.104 229.043 42.584C230.643 43.064 232.259 43.304 233.891 43.304C237.923 43.304 239.939 42.152 239.939 39.848C239.939 39.08 239.667 38.472 239.123 38.024C238.579 37.576 237.891 37.256 237.059 37.064C236.259 36.84 235.107 36.6 233.603 36.344C231.555 36.024 229.875 35.656 228.563 35.24C227.283 34.824 226.179 34.12 225.251 33.128C224.323 32.136 223.859 30.744 223.859 28.952C223.859 26.648 224.819 24.808 226.739 23.432C228.659 22.024 231.235 21.32 234.467 21.32C236.163 21.32 237.859 21.528 239.555 21.944C241.251 22.36 242.643 22.92 243.731 23.624L241.763 27.272C239.683 25.928 237.235 25.256 234.419 25.256C232.467 25.256 230.979 25.576 229.955 26.216C228.931 26.856 228.419 27.704 228.419 28.76C228.419 29.592 228.707 30.248 229.283 30.728C229.859 31.208 230.563 31.56 231.395 31.784C232.259 32.008 233.459 32.264 234.995 32.552C237.043 32.904 238.691 33.288 239.939 33.704C241.219 34.088 242.307 34.76 243.203 35.72C244.099 36.68 244.547 38.024 244.547 39.752C244.547 42.056 243.555 43.896 241.571 45.272C239.619 46.616 236.947 47.288 233.555 47.288Z" fill="url(#paint0_linear)"/>
</g>
<defs>
<filter id="filter0_d" x="0.368164" y="0.66394" width="257.179" height="71.936" filterUnits="userSpaceOnUse" color-interpolation-filters="sRGB">
<feFlood flood-opacity="0" result="BackgroundImageFix"/>
<feColorMatrix in="SourceAlpha" type="matrix" values="0 0 0 0 0 0 0 0 0 0 0 0 0 0 0 0 0 0 127 0"/>
<feOffset dy="3"/>
<feGaussianBlur stdDeviation="6.5"/>
<feColorMatrix type="matrix" values="0 0 0 0 0.0183963 0 0 0 0 0.0167002 0 0 0 0 0.0387499 0 0 0 0.13 0"/>
<feBlend mode="normal" in2="BackgroundImageFix" result="effect1_dropShadow"/>
<feBlend mode="normal" in="SourceGraphic" in2="effect1_dropShadow" result="shape"/>
</filter>
<linearGradient id="paint0_linear" x1="127.5" y1="0" x2="127.5" y2="59" gradientUnits="userSpaceOnUse">
<stop stop-color="#606EA3"/>
<stop offset="1" stop-color="#4E4376"/>
</linearGradient>
</defs>
</svg>
