<svg width="278" height="73" viewBox="0 0 278 73" fill="none" xmlns="http://www.w3.org/2000/svg">
<g opacity="0.69" filter="url(#filter0_d)">
<path d="M45.192 21.3195C48.392 21.3195 50.92 22.2475 52.776 24.1035C54.664 25.9595 55.608 28.7115 55.608 32.3595V46.9995H51V32.8875C51 30.4235 50.424 28.5675 49.272 27.3195C48.152 26.0715 46.536 25.4475 44.424 25.4475C42.088 25.4475 40.232 26.1835 38.856 27.6555C37.48 29.0955 36.792 31.1755 36.792 33.8955V46.9995H32.184V32.8875C32.184 30.4235 31.608 28.5675 30.456 27.3195C29.336 26.0715 27.72 25.4475 25.608 25.4475C23.272 25.4475 21.416 26.1835 20.04 27.6555C18.664 29.0955 17.976 31.1755 17.976 33.8955V46.9995H13.368V21.5595H17.784V25.3515C18.712 24.0395 19.928 23.0475 21.432 22.3755C22.936 21.6715 24.648 21.3195 26.568 21.3195C28.552 21.3195 30.312 21.7195 31.848 22.5195C33.384 23.3195 34.568 24.4875 35.4 26.0235C36.36 24.5515 37.688 23.3995 39.384 22.5675C41.112 21.7355 43.048 21.3195 45.192 21.3195ZM57.8468 21.5595H62.4548V46.9995H57.8468V21.5595ZM60.1508 16.6635C59.2548 16.6635 58.5028 16.3755 57.8948 15.7995C57.3188 15.2235 57.0308 14.5195 57.0308 13.6875C57.0308 12.8555 57.3188 12.1515 57.8948 11.5755C58.5028 10.9675 59.2548 10.6635 60.1508 10.6635C61.0468 10.6635 61.7828 10.9515 62.3588 11.5275C62.9668 12.0715 63.2708 12.7595 63.2708 13.5915C63.2708 14.4555 62.9668 15.1915 62.3588 15.7995C61.7828 16.3755 61.0468 16.6635 60.1508 16.6635ZM78.597 21.3195C81.829 21.3195 84.389 22.2635 86.277 24.1515C88.197 26.0075 89.157 28.7435 89.157 32.3595V46.9995H84.549V32.8875C84.549 30.4235 83.957 28.5675 82.773 27.3195C81.589 26.0715 79.893 25.4475 77.685 25.4475C75.189 25.4475 73.221 26.1835 71.781 27.6555C70.341 29.0955 69.621 31.1755 69.621 33.8955V46.9995H65.013V21.5595H69.429V25.3995C70.357 24.0875 71.605 23.0795 73.173 22.3755C74.773 21.6715 76.581 21.3195 78.597 21.3195ZM91.4449 21.5595H96.0529V46.9995H91.4449V21.5595ZM93.7489 16.6635C92.8529 16.6635 92.1009 16.3755 91.4929 15.7995C90.9169 15.2235 90.6289 14.5195 90.6289 13.6875C90.6289 12.8555 90.9169 12.1515 91.4929 11.5755C92.1009 10.9675 92.8529 10.6635 93.7489 10.6635C94.6449 10.6635 95.3809 10.9515 95.9569 11.5275C96.5649 12.0715 96.8689 12.7595 96.8689 13.5915C96.8689 14.4555 96.5649 15.1915 95.9569 15.7995C95.3809 16.3755 94.6449 16.6635 93.7489 16.6635ZM112.195 21.3195C115.427 21.3195 117.987 22.2635 119.875 24.1515C121.795 26.0075 122.755 28.7435 122.755 32.3595V46.9995H118.147V32.8875C118.147 30.4235 117.555 28.5675 116.371 27.3195C115.187 26.0715 113.491 25.4475 111.283 25.4475C108.787 25.4475 106.819 26.1835 105.379 27.6555C103.939 29.0955 103.219 31.1755 103.219 33.8955V46.9995H98.6111V21.5595H103.027V25.3995C103.955 24.0875 105.203 23.0795 106.771 22.3755C108.371 21.6715 110.179 21.3195 112.195 21.3195ZM149.52 21.5595V43.5435C149.52 47.9915 148.416 51.2715 146.208 53.3835C144 55.5275 140.704 56.5995 136.32 56.5995C133.92 56.5995 131.632 56.2635 129.456 55.5915C127.28 54.9515 125.52 54.0235 124.176 52.8075L126.384 49.2555C127.568 50.2795 129.024 51.0795 130.752 51.6555C132.512 52.2635 134.32 52.5675 136.176 52.5675C139.152 52.5675 141.344 51.8635 142.752 50.4555C144.192 49.0475 144.912 46.9035 144.912 44.0235V42.0075C143.824 43.3195 142.48 44.3115 140.88 44.9835C139.312 45.6235 137.6 45.9435 135.744 45.9435C133.312 45.9435 131.104 45.4315 129.12 44.4075C127.168 43.3515 125.632 41.8955 124.512 40.0395C123.392 38.1515 122.832 36.0075 122.832 33.6075C122.832 31.2075 123.392 29.0795 124.512 27.2235C125.632 25.3355 127.168 23.8795 129.12 22.8555C131.104 21.8315 133.312 21.3195 135.744 21.3195C137.664 21.3195 139.44 21.6715 141.072 22.3755C142.736 23.0795 144.096 24.1195 145.152 25.4955V21.5595H149.52ZM136.272 41.9115C137.936 41.9115 139.424 41.5595 140.736 40.8555C142.08 40.1515 143.12 39.1755 143.856 37.9275C144.624 36.6475 145.008 35.2075 145.008 33.6075C145.008 31.1435 144.192 29.1595 142.56 27.6555C140.928 26.1195 138.832 25.3515 136.272 25.3515C133.68 25.3515 131.568 26.1195 129.936 27.6555C128.304 29.1595 127.488 31.1435 127.488 33.6075C127.488 35.2075 127.856 36.6475 128.592 37.9275C129.36 39.1755 130.4 40.1515 131.712 40.8555C133.056 41.5595 134.576 41.9115 136.272 41.9115ZM172.223 21.3195C174.687 21.3195 176.895 21.8635 178.847 22.9515C180.799 24.0395 182.319 25.5595 183.407 27.5115C184.527 29.4635 185.087 31.7195 185.087 34.2795C185.087 36.8395 184.527 39.1115 183.407 41.0955C182.319 43.0475 180.799 44.5675 178.847 45.6555C176.895 46.7435 174.687 47.2875 172.223 47.2875C170.399 47.2875 168.719 46.9355 167.183 46.2315C165.679 45.5275 164.399 44.5035 163.343 43.1595V56.3115H158.735V21.5595H163.151V25.5915C164.175 24.1835 165.471 23.1275 167.039 22.4235C168.607 21.6875 170.335 21.3195 172.223 21.3195ZM171.839 43.2555C173.471 43.2555 174.927 42.8875 176.207 42.1515C177.519 41.3835 178.543 40.3275 179.279 38.9835C180.047 37.6075 180.431 36.0395 180.431 34.2795C180.431 32.5195 180.047 30.9675 179.279 29.6235C178.543 28.2475 177.519 27.1915 176.207 26.4555C174.927 25.7195 173.471 25.3515 171.839 25.3515C170.239 25.3515 168.783 25.7355 167.471 26.5035C166.191 27.2395 165.167 28.2795 164.399 29.6235C163.663 30.9675 163.295 32.5195 163.295 34.2795C163.295 36.0395 163.663 37.6075 164.399 38.9835C165.135 40.3275 166.159 41.3835 167.471 42.1515C168.783 42.8875 170.239 43.2555 171.839 43.2555ZM196.11 47.2875C193.582 47.2875 191.31 46.7275 189.294 45.6075C187.278 44.4875 185.694 42.9515 184.542 40.9995C183.422 39.0155 182.862 36.7755 182.862 34.2795C182.862 31.7835 183.422 29.5595 184.542 27.6075C185.694 25.6235 187.278 24.0875 189.294 22.9995C191.31 21.8795 193.582 21.3195 196.11 21.3195C198.638 21.3195 200.894 21.8795 202.878 22.9995C204.894 24.0875 206.462 25.6235 207.582 27.6075C208.734 29.5595 209.31 31.7835 209.31 34.2795C209.31 36.7755 208.734 39.0155 207.582 40.9995C206.462 42.9515 204.894 44.4875 202.878 45.6075C200.894 46.7275 198.638 47.2875 196.11 47.2875ZM196.11 43.2555C197.742 43.2555 199.198 42.8875 200.478 42.1515C201.79 41.3835 202.814 40.3275 203.55 38.9835C204.286 37.6075 204.654 36.0395 204.654 34.2795C204.654 32.5195 204.286 30.9675 203.55 29.6235C202.814 28.2475 201.79 27.1915 200.478 26.4555C199.198 25.7195 197.742 25.3515 196.11 25.3515C194.478 25.3515 193.006 25.7195 191.694 26.4555C190.414 27.1915 189.39 28.2475 188.622 29.6235C187.886 30.9675 187.518 32.5195 187.518 34.2795C187.518 36.0395 187.886 37.6075 188.622 38.9835C189.39 40.3275 190.414 41.3835 191.694 42.1515C193.006 42.8875 194.478 43.2555 196.11 43.2555ZM213.858 25.8315C214.658 24.3595 215.842 23.2395 217.41 22.4715C218.978 21.7035 220.882 21.3195 223.122 21.3195V25.7835C222.866 25.7515 222.514 25.7355 222.066 25.7355C219.57 25.7355 217.602 26.4875 216.162 27.9915C214.754 29.4635 214.05 31.5755 214.05 34.3275V46.9995H209.442V21.5595H213.858V25.8315ZM237.897 45.5115C237.225 46.0875 236.393 46.5355 235.401 46.8555C234.409 47.1435 233.385 47.2875 232.329 47.2875C229.769 47.2875 227.785 46.5995 226.377 45.2235C224.969 43.8475 224.265 41.8795 224.265 39.3195V25.3515H219.945V21.5595H224.265V15.9915H228.873V21.5595H236.169V25.3515H228.873V39.1275C228.873 40.5035 229.209 41.5595 229.881 42.2955C230.585 43.0315 231.577 43.3995 232.857 43.3995C234.265 43.3995 235.465 42.9995 236.457 42.1995L237.897 45.5115ZM246.492 21.3195C250.012 21.3195 252.7 22.1835 254.556 23.9115C256.444 25.6395 257.388 28.2155 257.388 31.6395V46.9995H253.02V43.6395C252.252 44.8235 251.148 45.7355 249.708 46.3755C248.3 46.9835 246.62 47.2875 244.668 47.2875C241.82 47.2875 239.532 46.5995 237.804 45.2235C236.108 43.8475 235.26 42.0395 235.26 39.7995C235.26 37.5595 236.076 35.7675 237.708 34.4235C239.34 33.0475 241.932 32.3595 245.484 32.3595H252.78V31.4475C252.78 29.4635 252.204 27.9435 251.052 26.8875C249.9 25.8315 248.204 25.3035 245.964 25.3035C244.46 25.3035 242.988 25.5595 241.548 26.0715C240.108 26.5515 238.892 27.2075 237.9 28.0395L235.98 24.5835C237.292 23.5275 238.86 22.7275 240.684 22.1835C242.508 21.6075 244.444 21.3195 246.492 21.3195ZM245.436 43.7355C247.196 43.7355 248.716 43.3515 249.996 42.5835C251.276 41.7835 252.204 40.6635 252.78 39.2235V35.6715H245.676C241.772 35.6715 239.82 36.9835 239.82 39.6075C239.82 40.8875 240.316 41.8955 241.308 42.6315C242.3 43.3675 243.676 43.7355 245.436 43.7355ZM259.675 11.3835H264.283V46.9995H259.675V11.3835Z" fill="url(#paint0_linear)"/>
</g>
<defs>
<filter id="filter0_d" x="0.368164" y="0.663574" width="276.915" height="71.936" filterUnits="userSpaceOnUse" color-interpolation-filters="sRGB">
<feFlood flood-opacity="0" result="BackgroundImageFix"/>
<feColorMatrix in="SourceAlpha" type="matrix" values="0 0 0 0 0 0 0 0 0 0 0 0 0 0 0 0 0 0 127 0"/>
<feOffset dy="3"/>
<feGaussianBlur stdDeviation="6.5"/>
<feColorMatrix type="matrix" values="0 0 0 0 0.0183963 0 0 0 0 0.0167002 0 0 0 0 0.0387499 0 0 0 0.13 0"/>
<feBlend mode="normal" in2="BackgroundImageFix" result="effect1_dropShadow"/>
<feBlend mode="normal" in="SourceGraphic" in2="effect1_dropShadow" result="shape"/>
</filter>
<linearGradient id="paint0_linear" x1="139" y1="-0.000488281" x2="139" y2="58.9995" gradientUnits="userSpaceOnUse">
<stop stop-color="#606EA3"/>
<stop offset="1" stop-color="#4E4376"/>
</linearGradient>
</defs>
</svg>
