<svg width="65.808mm" height="16.379mm" version="1.1" viewBox="0 0 65.808 16.379" xmlns="http://www.w3.org/2000/svg">
 <defs>
  <filter id="filter0_d-3" x=".36816" y=".38403" width="249.03" height="71.216" color-interpolation-filters="sRGB" filterUnits="userSpaceOnUse">
   <feFlood flood-opacity="0" result="BackgroundImageFix"/>
   <feColorMatrix in="SourceAlpha" values="0 0 0 0 0 0 0 0 0 0 0 0 0 0 0 0 0 0 127 0"/>
   <feOffset dy="3"/>
   <feGaussianBlur stdDeviation="6.5"/>
   <feColorMatrix values="0 0 0 0 0.0183963 0 0 0 0 0.0167002 0 0 0 0 0.0387499 0 0 0 0.13 0"/>
   <feBlend in2="BackgroundImageFix" result="effect1_dropShadow"/>
   <feBlend in="SourceGraphic" in2="effect1_dropShadow" result="shape"/>
  </filter>
  <linearGradient id="paint0_linear-6" x1="120.5" x2="120.5" y2="59" gradientUnits="userSpaceOnUse">
   <stop stop-color="#606EA3" offset="0"/>
   <stop stop-color="#4E4376" offset="1"/>
  </linearGradient>
 </defs>
 <g transform="translate(-17.281 -124.77)">
  <g transform="matrix(.26458 0 0 .26458 17.254 124.08)" fill="none">
   <g filter="url(#filter0_d-3)" opacity=".69">
    <path d="m45.192 20.32c3.2 0 5.728 0.928 7.584 2.784 1.888 1.856 2.832 4.608 2.832 8.256v14.64h-4.608v-14.112c0-2.464-0.576-4.32-1.728-5.568-1.12-1.248-2.736-1.872-4.848-1.872-2.336 0-4.192 0.736-5.568 2.208-1.376 1.44-2.064 3.52-2.064 6.24v13.104h-4.608v-14.112c0-2.464-0.576-4.32-1.728-5.568-1.12-1.248-2.736-1.872-4.848-1.872-2.336 0-4.192 0.736-5.568 2.208-1.376 1.44-2.064 3.52-2.064 6.24v13.104h-4.608v-25.44h4.416v3.792c0.928-1.312 2.144-2.304 3.648-2.976 1.504-0.704 3.216-1.056 5.136-1.056 1.984 0 3.744 0.4 5.28 1.2s2.72 1.968 3.552 3.504c0.96-1.472 2.288-2.624 3.984-3.456 1.728-0.832 3.664-1.248 5.808-1.248zm34.698 0.24-12.336 27.984c-1.088 2.592-2.368 4.416-3.84 5.472-1.44 1.056-3.184 1.584-5.232 1.584-1.248 0-2.464-0.208-3.648-0.624-1.152-0.384-2.112-0.96-2.88-1.728l1.968-3.456c1.312 1.248 2.832 1.872 4.56 1.872 1.12 0 2.048-0.304 2.784-0.912 0.768-0.576 1.456-1.584 2.064-3.024l0.816-1.776-11.232-25.392h4.8l8.88 20.352 8.784-20.352zm9.1271 4.272c0.8-1.472 1.984-2.592 3.552-3.36s3.472-1.152 5.712-1.152v4.464c-0.256-0.032-0.608-0.048-1.056-0.048-2.496 0-4.464 0.752-5.904 2.256-1.408 1.472-2.112 3.584-2.112 6.336v12.672h-4.608v-25.44h4.416zm31.461 8.592c0 0.352-0.032 0.816-0.096 1.392h-20.64c0.2879 2.24 1.2639 4.048 2.9279 5.424 1.696 1.344 3.792 2.016 6.288 2.016 3.04 0 5.488-1.024 7.344-3.072l2.544 2.976c-1.152 1.344-2.592 2.368-4.32 3.072-1.696 0.704-3.6 1.056-5.712 1.056-2.688 0-5.072-0.544-7.152-1.632-2.0799-1.12-3.6959-2.672-4.8479-4.656-1.12-1.984-1.68-4.224-1.68-6.72 0-2.464 0.544-4.688 1.632-6.672 1.12-1.984 2.64-3.52 4.5599-4.608 1.952-1.12 4.144-1.68 6.576-1.68s4.592 0.56 6.48 1.68c1.92 1.088 3.408 2.624 4.464 4.608 1.088 1.984 1.632 4.256 1.632 6.816zm-12.576-9.216c-2.208 0-4.064 0.672-5.568 2.016-1.472 1.344-2.3359 3.104-2.5919 5.28h16.32c-0.256-2.144-1.136-3.888-2.64-5.232-1.472-1.376-3.312-2.064-5.52-2.064zm50.762-3.648-9.504 25.44h-4.416l-7.344-19.296-7.44 19.296h-4.416l-9.456-25.44h4.368l7.392 20.256 7.68-20.256h3.888l7.536 20.352 7.584-20.352zm6.903-0.24c3.52 0 6.208 0.864 8.064 2.592 1.888 1.728 2.832 4.304 2.832 7.728v15.36h-4.368v-3.36c-0.768 1.184-1.872 2.096-3.312 2.736-1.408 0.608-3.088 0.912-5.04 0.912-2.848 0-5.136-0.688-6.864-2.064-1.696-1.376-2.544-3.184-2.544-5.424s0.816-4.032 2.448-5.376c1.632-1.376 4.224-2.064 7.776-2.064h7.296v-0.912c0-1.984-0.576-3.504-1.728-4.56s-2.848-1.584-5.088-1.584c-1.504 0-2.976 0.256-4.416 0.768-1.44 0.48-2.656 1.136-3.648 1.968l-1.92-3.456c1.312-1.056 2.88-1.856 4.704-2.4 1.824-0.576 3.76-0.864 5.808-0.864zm-1.056 22.416c1.76 0 3.28-0.384 4.56-1.152 1.28-0.8 2.208-1.92 2.784-3.36v-3.552h-7.104c-3.904 0-5.856 1.312-5.856 3.936 0 1.28 0.496 2.288 1.488 3.024s2.368 1.104 4.128 1.104zm18.656-17.904c0.8-1.472 1.984-2.592 3.552-3.36s3.472-1.152 5.712-1.152v4.464c-0.256-0.032-0.608-0.048-1.056-0.048-2.496 0-4.464 0.752-5.904 2.256-1.408 1.472-2.112 3.584-2.112 6.336v12.672h-4.608v-25.44h4.416zm32.469-14.448v35.616h-4.416v-4.032c-1.024 1.408-2.32 2.48-3.888 3.216s-3.296 1.104-5.184 1.104c-2.464 0-4.672-0.544-6.624-1.632s-3.488-2.608-4.608-4.56c-1.088-1.984-1.632-4.256-1.632-6.816s0.544-4.816 1.632-6.768c1.12-1.952 2.656-3.472 4.608-4.56s4.16-1.632 6.624-1.632c1.824 0 3.504 0.352 5.04 1.056 1.536 0.672 2.816 1.68 3.84 3.024v-14.016zm-13.104 31.872c1.6 0 3.056-0.368 4.368-1.104 1.312-0.768 2.336-1.824 3.072-3.168 0.736-1.376 1.104-2.944 1.104-4.704s-0.368-3.312-1.104-4.656c-0.736-1.376-1.76-2.432-3.072-3.168s-2.768-1.104-4.368-1.104c-1.632 0-3.104 0.368-4.416 1.104-1.28 0.736-2.304 1.792-3.072 3.168-0.736 1.344-1.104 2.896-1.104 4.656s0.368 3.328 1.104 4.704c0.768 1.344 1.792 2.4 3.072 3.168 1.312 0.736 2.784 1.104 4.416 1.104zm22.878 4.032c-2.08 0-4.08-0.272-6-0.816-1.92-0.576-3.424-1.296-4.512-2.16l1.92-3.648c1.12 0.8 2.48 1.44 4.08 1.92s3.216 0.72 4.848 0.72c4.032 0 6.048-1.152 6.048-3.456 0-0.768-0.272-1.376-0.816-1.824s-1.232-0.768-2.064-0.96c-0.8-0.224-1.952-0.464-3.456-0.72-2.048-0.32-3.728-0.688-5.04-1.104-1.28-0.416-2.384-1.12-3.312-2.112s-1.392-2.384-1.392-4.176c0-2.304 0.96-4.144 2.88-5.52 1.92-1.408 4.496-2.112 7.728-2.112 1.696 0 3.392 0.208 5.088 0.624s3.088 0.976 4.176 1.68l-1.968 3.648c-2.08-1.344-4.528-2.016-7.344-2.016-1.952 0-3.44 0.32-4.464 0.96s-1.536 1.488-1.536 2.544c0 0.832 0.288 1.488 0.864 1.968s1.28 0.832 2.112 1.056c0.864 0.224 2.064 0.48 3.6 0.768 2.048 0.352 3.696 0.736 4.944 1.152 1.28 0.384 2.368 1.056 3.264 2.016s1.344 2.304 1.344 4.032c0 2.304-0.992 4.144-2.976 5.52-1.952 1.344-4.624 2.016-8.016 2.016z" fill="url(#paint0_linear-6)"/>
   </g>
  </g>
 </g>
</svg>
