<svg width="256" height="76" viewBox="0 0 256 76" fill="none" xmlns="http://www.w3.org/2000/svg">
<g opacity="0.69" filter="url(#filter0_d)">
<path d="M31.352 59.384C27.9813 59.384 24.952 58.6373 22.264 57.144C19.576 55.6507 17.464 53.6027 15.928 51C14.4347 48.3547 13.688 45.368 13.688 42.04C13.688 38.712 14.4347 35.7467 15.928 33.144C17.464 30.4987 19.576 28.4507 22.264 27C24.952 25.5067 27.9813 24.76 31.352 24.76C34.7227 24.76 37.7307 25.5067 40.376 27C43.064 28.4507 45.1547 30.4987 46.648 33.144C48.184 35.7467 48.952 38.712 48.952 42.04C48.952 45.368 48.184 48.3547 46.648 51C45.1547 53.6027 43.064 55.6507 40.376 57.144C37.7307 58.6373 34.7227 59.384 31.352 59.384ZM31.352 54.008C33.528 54.008 35.4693 53.5173 37.176 52.536C38.9253 51.512 40.2907 50.104 41.272 48.312C42.2533 46.4773 42.744 44.3867 42.744 42.04C42.744 39.6933 42.2533 37.624 41.272 35.832C40.2907 33.9973 38.9253 32.5893 37.176 31.608C35.4693 30.6267 33.528 30.136 31.352 30.136C29.176 30.136 27.2133 30.6267 25.464 31.608C23.7573 32.5893 22.392 33.9973 21.368 35.832C20.3867 37.624 19.896 39.6933 19.896 42.04C19.896 44.3867 20.3867 46.4773 21.368 48.312C22.392 50.104 23.7573 51.512 25.464 52.536C27.2133 53.5173 29.176 54.008 31.352 54.008ZM78.2075 25.08L63.3595 59H57.0875L42.2395 25.08H48.6395L60.2875 52.28L72.1915 25.08H78.2075ZM105.34 42.232C105.34 42.7013 105.297 43.32 105.212 44.088H77.692C78.076 47.0747 79.3773 49.4853 81.596 51.32C83.8573 53.112 86.652 54.008 89.98 54.008C94.0333 54.008 97.2973 52.6427 99.772 49.912L103.164 53.88C101.628 55.672 99.708 57.0373 97.404 57.976C95.1427 58.9147 92.604 59.384 89.788 59.384C86.204 59.384 83.0253 58.6587 80.252 57.208C77.4787 55.7147 75.324 53.6453 73.788 51C72.2947 48.3547 71.548 45.368 71.548 42.04C71.548 38.7547 72.2733 35.7893 73.724 33.144C75.2173 30.4987 77.244 28.4507 79.804 27C82.4067 25.5067 85.3293 24.76 88.572 24.76C91.8147 24.76 94.6947 25.5067 97.212 27C99.772 28.4507 101.756 30.4987 103.164 33.144C104.615 35.7893 105.34 38.8187 105.34 42.232ZM88.572 29.944C85.628 29.944 83.1533 30.84 81.148 32.632C79.1853 34.424 78.0333 36.7707 77.692 39.672H99.452C99.1107 36.8133 97.9373 34.488 95.932 32.696C93.9693 30.8613 91.516 29.944 88.572 29.944ZM111.44 30.776C112.506 28.8133 114.085 27.32 116.176 26.296C118.266 25.272 120.805 24.76 123.792 24.76V30.712C123.45 30.6693 122.981 30.648 122.384 30.648C119.056 30.648 116.432 31.6507 114.512 33.656C112.634 35.6187 111.696 38.4347 111.696 42.104V59H105.552V25.08H111.44V30.776ZM154.435 25.08L139.587 59H133.315L118.467 25.08H124.867L136.515 52.28L148.419 25.08H154.435ZM151.849 25.08H157.993V59H151.849V25.08ZM154.921 18.552C153.726 18.552 152.724 18.168 151.913 17.4C151.145 16.632 150.761 15.6933 150.761 14.584C150.761 13.4747 151.145 12.536 151.913 11.768C152.724 10.9573 153.726 10.552 154.921 10.552C156.116 10.552 157.097 10.936 157.865 11.704C158.676 12.4293 159.081 13.3467 159.081 14.456C159.081 15.608 158.676 16.5893 157.865 17.4C157.097 18.168 156.116 18.552 154.921 18.552ZM192.06 42.232C192.06 42.7013 192.017 43.32 191.932 44.088H164.412C164.796 47.0747 166.097 49.4853 168.316 51.32C170.577 53.112 173.372 54.008 176.7 54.008C180.753 54.008 184.017 52.6427 186.492 49.912L189.884 53.88C188.348 55.672 186.428 57.0373 184.124 57.976C181.863 58.9147 179.324 59.384 176.508 59.384C172.924 59.384 169.745 58.6587 166.972 57.208C164.199 55.7147 162.044 53.6453 160.508 51C159.015 48.3547 158.268 45.368 158.268 42.04C158.268 38.7547 158.993 35.7893 160.444 33.144C161.937 30.4987 163.964 28.4507 166.524 27C169.127 25.5067 172.049 24.76 175.292 24.76C178.535 24.76 181.415 25.5067 183.932 27C186.492 28.4507 188.476 30.4987 189.884 33.144C191.335 35.7893 192.06 38.8187 192.06 42.232ZM175.292 29.944C172.348 29.944 169.873 30.84 167.868 32.632C165.905 34.424 164.753 36.7707 164.412 39.672H186.172C185.831 36.8133 184.657 34.488 182.652 32.696C180.689 30.8613 178.236 29.944 175.292 29.944ZM242.975 25.08L230.303 59H224.415L214.623 33.272L204.703 59H198.815L186.207 25.08H192.031L201.887 52.088L212.127 25.08H217.311L227.359 52.216L237.471 25.08H242.975Z" fill="url(#paint0_linear)"/>
</g>
<defs>
<filter id="filter0_d" x="0.6875" y="0.552002" width="255.287" height="74.832" filterUnits="userSpaceOnUse" color-interpolation-filters="sRGB">
<feFlood flood-opacity="0" result="BackgroundImageFix"/>
<feColorMatrix in="SourceAlpha" type="matrix" values="0 0 0 0 0 0 0 0 0 0 0 0 0 0 0 0 0 0 127 0"/>
<feOffset dy="3"/>
<feGaussianBlur stdDeviation="6.5"/>
<feColorMatrix type="matrix" values="0 0 0 0 0.0183963 0 0 0 0 0.0167002 0 0 0 0 0.0387499 0 0 0 0.13 0"/>
<feBlend mode="normal" in2="BackgroundImageFix" result="effect1_dropShadow"/>
<feBlend mode="normal" in="SourceGraphic" in2="effect1_dropShadow" result="shape"/>
</filter>
<linearGradient id="paint0_linear" x1="123.5" y1="-3" x2="123.5" y2="76" gradientUnits="userSpaceOnUse">
<stop stop-color="#606EA3"/>
<stop offset="1" stop-color="#4E4376"/>
</linearGradient>
</defs>
</svg>
