<svg width="144" height="55" viewBox="0 0 144 55" fill="none" xmlns="http://www.w3.org/2000/svg">
<g filter="url(#filter0_d)">
<path d="M21.748 38.216C20.188 38.216 18.688 38.012 17.248 37.604C15.808 37.172 14.68 36.632 13.864 35.984L15.304 33.248C16.144 33.848 17.164 34.328 18.364 34.688C19.564 35.048 20.776 35.228 22 35.228C25.024 35.228 26.536 34.364 26.536 32.636C26.536 32.06 26.332 31.604 25.924 31.268C25.516 30.932 25 30.692 24.376 30.548C23.776 30.38 22.912 30.2 21.784 30.008C20.248 29.768 18.988 29.492 18.004 29.18C17.044 28.868 16.216 28.34 15.52 27.596C14.824 26.852 14.476 25.808 14.476 24.464C14.476 22.736 15.196 21.356 16.636 20.324C18.076 19.268 20.008 18.74 22.432 18.74C23.704 18.74 24.976 18.896 26.248 19.208C27.52 19.52 28.564 19.94 29.38 20.468L27.904 23.204C26.344 22.196 24.508 21.692 22.396 21.692C20.932 21.692 19.816 21.932 19.048 22.412C18.28 22.892 17.896 23.528 17.896 24.32C17.896 24.944 18.112 25.436 18.544 25.796C18.976 26.156 19.504 26.42 20.128 26.588C20.776 26.756 21.676 26.948 22.828 27.164C24.364 27.428 25.6 27.716 26.536 28.028C27.496 28.316 28.312 28.82 28.984 29.54C29.656 30.26 29.992 31.268 29.992 32.564C29.992 34.292 29.248 35.672 27.76 36.704C26.296 37.712 24.292 38.216 21.748 38.216ZM40.3592 36.884C39.8552 37.316 39.2312 37.652 38.4872 37.892C37.7432 38.108 36.9752 38.216 36.1832 38.216C34.2632 38.216 32.7752 37.7 31.7192 36.668C30.6632 35.636 30.1352 34.16 30.1352 32.24V21.764H26.8952V18.92H30.1352V14.744H33.5912V18.92H39.0632V21.764H33.5912V32.096C33.5912 33.128 33.8432 33.92 34.3472 34.472C34.8752 35.024 35.6192 35.3 36.5792 35.3C37.6352 35.3 38.5352 35 39.2792 34.4L40.3592 36.884ZM46.8054 18.74C49.4454 18.74 51.4614 19.388 52.8534 20.684C54.2694 21.98 54.9774 23.912 54.9774 26.48V38H51.7014V35.48C51.1254 36.368 50.2974 37.052 49.2174 37.532C48.1614 37.988 46.9014 38.216 45.4374 38.216C43.3014 38.216 41.5854 37.7 40.2894 36.668C39.0174 35.636 38.3814 34.28 38.3814 32.6C38.3814 30.92 38.9934 29.576 40.2174 28.568C41.4414 27.536 43.3854 27.02 46.0494 27.02H51.5214V26.336C51.5214 24.848 51.0894 23.708 50.2254 22.916C49.3614 22.124 48.0894 21.728 46.4094 21.728C45.2814 21.728 44.1774 21.92 43.0974 22.304C42.0174 22.664 41.1054 23.156 40.3614 23.78L38.9214 21.188C39.9054 20.396 41.0814 19.796 42.4494 19.388C43.8174 18.956 45.2694 18.74 46.8054 18.74ZM46.0134 35.552C47.3334 35.552 48.4734 35.264 49.4334 34.688C50.3934 34.088 51.0894 33.248 51.5214 32.168V29.504H46.1934C43.2654 29.504 41.8014 30.488 41.8014 32.456C41.8014 33.416 42.1734 34.172 42.9174 34.724C43.6614 35.276 44.6934 35.552 46.0134 35.552ZM67.421 36.884C66.917 37.316 66.293 37.652 65.549 37.892C64.805 38.108 64.037 38.216 63.245 38.216C61.325 38.216 59.837 37.7 58.781 36.668C57.725 35.636 57.197 34.16 57.197 32.24V21.764H53.957V18.92H57.197V14.744H60.653V18.92H66.125V21.764H60.653V32.096C60.653 33.128 60.905 33.92 61.409 34.472C61.937 35.024 62.681 35.3 63.641 35.3C64.697 35.3 65.597 35 66.341 34.4L67.421 36.884ZM66.9193 18.92H70.3753V38H66.9193V18.92ZM68.6473 15.248C67.9753 15.248 67.4113 15.032 66.9553 14.6C66.5233 14.168 66.3073 13.64 66.3073 13.016C66.3073 12.392 66.5233 11.864 66.9553 11.432C67.4113 10.976 67.9753 10.748 68.6473 10.748C69.3193 10.748 69.8713 10.964 70.3033 11.396C70.7593 11.804 70.9873 12.32 70.9873 12.944C70.9873 13.592 70.7593 14.144 70.3033 14.6C69.8713 15.032 69.3193 15.248 68.6473 15.248ZM77.766 38.216C76.206 38.216 74.706 38.012 73.266 37.604C71.826 37.172 70.698 36.632 69.882 35.984L71.322 33.248C72.162 33.848 73.182 34.328 74.382 34.688C75.582 35.048 76.794 35.228 78.018 35.228C81.042 35.228 82.554 34.364 82.554 32.636C82.554 32.06 82.35 31.604 81.942 31.268C81.534 30.932 81.018 30.692 80.394 30.548C79.794 30.38 78.93 30.2 77.802 30.008C76.266 29.768 75.006 29.492 74.022 29.18C73.062 28.868 72.234 28.34 71.538 27.596C70.842 26.852 70.494 25.808 70.494 24.464C70.494 22.736 71.214 21.356 72.654 20.324C74.094 19.268 76.026 18.74 78.45 18.74C79.722 18.74 80.994 18.896 82.266 19.208C83.538 19.52 84.582 19.94 85.398 20.468L83.922 23.204C82.362 22.196 80.526 21.692 78.414 21.692C76.95 21.692 75.834 21.932 75.066 22.412C74.298 22.892 73.914 23.528 73.914 24.32C73.914 24.944 74.13 25.436 74.562 25.796C74.994 26.156 75.522 26.42 76.146 26.588C76.794 26.756 77.694 26.948 78.846 27.164C80.382 27.428 81.618 27.716 82.554 28.028C83.514 28.316 84.33 28.82 85.002 29.54C85.674 30.26 86.01 31.268 86.01 32.564C86.01 34.292 85.266 35.672 83.778 36.704C82.314 37.712 80.31 38.216 77.766 38.216ZM96.3771 36.884C95.8731 37.316 95.2491 37.652 94.5051 37.892C93.7611 38.108 92.9931 38.216 92.2011 38.216C90.2811 38.216 88.7931 37.7 87.7371 36.668C86.6811 35.636 86.1531 34.16 86.1531 32.24V21.764H82.9131V18.92H86.1531V14.744H89.6091V18.92H95.0811V21.764H89.6091V32.096C89.6091 33.128 89.8611 33.92 90.3651 34.472C90.8931 35.024 91.6371 35.3 92.5971 35.3C93.6531 35.3 94.5531 35 95.2971 34.4L96.3771 36.884ZM95.8754 18.92H99.3314V38H95.8754V18.92ZM97.6034 15.248C96.9314 15.248 96.3674 15.032 95.9114 14.6C95.4794 14.168 95.2634 13.64 95.2634 13.016C95.2634 12.392 95.4794 11.864 95.9114 11.432C96.3674 10.976 96.9314 10.748 97.6034 10.748C98.2754 10.748 98.8274 10.964 99.2594 11.396C99.7154 11.804 99.9434 12.32 99.9434 12.944C99.9434 13.592 99.7154 14.144 99.2594 14.6C98.8274 15.032 98.2754 15.248 97.6034 15.248ZM109.566 38.216C107.622 38.216 105.882 37.796 104.346 36.956C102.834 36.116 101.646 34.964 100.782 33.5C99.9181 32.012 99.4861 30.332 99.4861 28.46C99.4861 26.588 99.9181 24.92 100.782 23.456C101.646 21.968 102.834 20.816 104.346 20C105.882 19.16 107.622 18.74 109.566 18.74C111.294 18.74 112.83 19.088 114.174 19.784C115.542 20.48 116.598 21.488 117.342 22.808L114.714 24.5C114.114 23.588 113.37 22.904 112.482 22.448C111.594 21.992 110.61 21.764 109.53 21.764C108.282 21.764 107.154 22.04 106.146 22.592C105.162 23.144 104.382 23.936 103.806 24.968C103.254 25.976 102.978 27.14 102.978 28.46C102.978 29.804 103.254 30.992 103.806 32.024C104.382 33.032 105.162 33.812 106.146 34.364C107.154 34.916 108.282 35.192 109.53 35.192C110.61 35.192 111.594 34.964 112.482 34.508C113.37 34.052 114.114 33.368 114.714 32.456L117.342 34.112C116.598 35.432 115.542 36.452 114.174 37.172C112.83 37.868 111.294 38.216 109.566 38.216ZM122.608 38.216C121.048 38.216 119.548 38.012 118.108 37.604C116.668 37.172 115.54 36.632 114.724 35.984L116.164 33.248C117.004 33.848 118.024 34.328 119.224 34.688C120.424 35.048 121.636 35.228 122.86 35.228C125.884 35.228 127.396 34.364 127.396 32.636C127.396 32.06 127.192 31.604 126.784 31.268C126.376 30.932 125.86 30.692 125.236 30.548C124.636 30.38 123.772 30.2 122.644 30.008C121.108 29.768 119.848 29.492 118.864 29.18C117.904 28.868 117.076 28.34 116.38 27.596C115.684 26.852 115.336 25.808 115.336 24.464C115.336 22.736 116.056 21.356 117.496 20.324C118.936 19.268 120.868 18.74 123.292 18.74C124.564 18.74 125.836 18.896 127.108 19.208C128.38 19.52 129.424 19.94 130.24 20.468L128.764 23.204C127.204 22.196 125.368 21.692 123.256 21.692C121.792 21.692 120.676 21.932 119.908 22.412C119.14 22.892 118.756 23.528 118.756 24.32C118.756 24.944 118.972 25.436 119.404 25.796C119.836 26.156 120.364 26.42 120.988 26.588C121.636 26.756 122.536 26.948 123.688 27.164C125.224 27.428 126.46 27.716 127.396 28.028C128.356 28.316 129.172 28.82 129.844 29.54C130.516 30.26 130.852 31.268 130.852 32.564C130.852 34.292 130.108 35.672 128.62 36.704C127.156 37.712 125.152 38.216 122.608 38.216Z" fill="url(#paint0_linear)"/>
</g>
<defs>
<filter id="filter0_d" x="0.863281" y="0.747986" width="142.988" height="53.468" filterUnits="userSpaceOnUse" color-interpolation-filters="sRGB">
<feFlood flood-opacity="0" result="BackgroundImageFix"/>
<feColorMatrix in="SourceAlpha" type="matrix" values="0 0 0 0 0 0 0 0 0 0 0 0 0 0 0 0 0 0 127 0"/>
<feOffset dy="3"/>
<feGaussianBlur stdDeviation="6.5"/>
<feColorMatrix type="matrix" values="0 0 0 0 0.0183963 0 0 0 0 0.0167002 0 0 0 0 0.0387499 0 0 0 0.13 0"/>
<feBlend mode="normal" in2="BackgroundImageFix" result="effect1_dropShadow"/>
<feBlend mode="normal" in="SourceGraphic" in2="effect1_dropShadow" result="shape"/>
</filter>
<linearGradient id="paint0_linear" x1="72.5" y1="3" x2="72.5" y2="47" gradientUnits="userSpaceOnUse">
<stop stop-color="#1A2139"/>
<stop offset="1" stop-color="#352B5B"/>
</linearGradient>
</defs>
</svg>
