<svg width="34" height="34" version="1.1" viewBox="0 0 34 34" xmlns="http://www.w3.org/2000/svg">
 <g transform="translate(-1.3061e-6 -.0039787)">
  <path d="m33.492 21.115c-2.2708 9.1082-11.496 14.651-20.606 12.38-9.1051-2.2708-14.648-11.496-12.377-20.604 2.2698-9.1094 11.495-14.653 20.602-12.382 9.1087 2.2708 14.651 11.498 12.381 20.606z" fill="#f7931a"/>
  <path d="m24.497 14.58c0.3379-2.2623-1.3846-3.4784-3.7399-4.2897l0.764-3.0646-1.8659-0.4649-0.7439 2.9838c-0.4898-0.12221-0.9935-0.2375-1.494-0.35173l0.7491-3.0035-1.8643-0.46489-0.7646 3.0635c-0.4059-0.09245-0.8044-0.18383-1.1912-0.28l0.0021-0.00956-2.5726-0.64236-0.4962 1.9924s1.3841 0.3172 1.3548 0.3369c0.7556 0.1886 0.8926 0.6885 0.8693 1.0849l-0.8703 3.4912c0.052 0.0133 0.1195 0.0324 0.1939 0.0622l-0.1966-0.0489-1.2204 4.8907c-0.0925 0.2295-0.3268 0.5738-0.8549 0.4431 0.0186 0.0271-1.3559-0.3384-1.3559-0.3384l-0.92607 2.1358 2.4281 0.6052c0.4516 0.1132 0.8942 0.2317 1.3294 0.3432l-0.772 3.1002 1.8633 0.4649 0.7651-3.0667c0.5084 0.1381 1.0025 0.2657 1.486 0.3857l-0.7619 3.0524 1.8655 0.4649 0.772-3.0938c3.1809 0.602 5.5734 0.3592 6.5792-2.5174 0.8113-2.3165-0.0399-3.6527-1.7135-4.5246 1.2188-0.2821 2.1369-1.0839 2.3818-2.74zm-4.2627 5.9767c-0.577 2.3166-4.4768 1.0648-5.7419 0.7503l1.0244-4.1065c1.2645 0.3156 5.3189 0.9404 4.718 3.3562zm0.5765-6.0101c-0.526 2.1071-3.7723 1.0366-4.8259 0.7741l0.9287-3.7245c1.0536 0.2625 4.4455 0.7523 3.8972 2.9504z" fill="#fff"/>
 </g>
</svg>
