<svg  width="34" height="34" version="1.1" viewBox="0 0 34 34" xmlns="http://www.w3.org/2000/svg">
 <path d="m31.569 8.2484c4.8348 8.0462 2.2305 18.489-5.8165 23.324-8.0439 4.8325-18.487 2.2286-23.321-5.8176-4.8363-8.0462-2.2331-18.489 5.812-23.323 8.0466-4.8352 18.49-2.2305 23.326 5.8161z" fill="#8dcc4e"/>
 <path d="m22.311 11.328c-0.8385-2.1282-2.9383-2.3202-5.3837-1.8452l-0.8706-3.036-1.8484 0.5304 0.8477 2.956c-0.4853 0.1391-0.9792 0.2911-1.4697 0.4424l-0.853-2.9757-1.847 0.5296 0.8696 3.0354c-0.3978 0.1229-0.7886 0.243-1.1716 0.3531l-3e-3 -0.0094-2.5491 0.73 0.5665 1.9736s1.3572-0.4173 1.3417-0.3857c0.7486-0.2144 1.1173 0.1501 1.2953 0.505l0.9919 3.4586c0.0517-0.0145 0.1197-0.0317 0.199-0.0431l-0.1947 0.056 1.3885 4.8457c0.0347 0.245 0.0039 0.6603-0.5188 0.8111 0.0296 0.0142-1.3435 0.3849-1.3435 0.3849l0.2659 2.3127 2.4054-0.6899c0.4477-0.1278 0.8902-0.2465 1.3229-0.3674l0.8815 3.0708 1.8461-0.529-0.8708-3.0384c0.5094-0.1346 1.0011-0.2713 1.4799-0.409l0.8663 3.0244 1.848-0.5301-0.8783-3.0654c3.0557-1.0691 5.0063-2.4756 4.439-5.4696-0.4556-2.4119-1.8608-3.1435-3.7462-3.0618 0.9145-0.8537 1.3087-2.0071 0.6928-3.5638zm-0.7032 7.3073c0.6585 2.2947-3.3447 3.1605-4.5975 3.5206l-1.1661-4.0685c1.2529-0.3589 5.0765-1.845 5.7641 0.5476zm-2.5059-5.4932c0.5981 2.0879-2.7486 2.7838-3.7922 3.0833l-1.058-3.6898c1.0437-0.2995 4.2261-1.5712 4.8502 0.6065z" fill="#fff"/>
</svg>
