<svg width="34" height="34" version="1.1" viewBox="0 0 34 34" xmlns="http://www.w3.org/2000/svg">
 <path d="m16.246 0.015447c-2.7384 0.11887-5.4872 0.90302-8.0017 2.414-8.0451 4.834-10.649 15.278-5.8123 23.324 4.834 8.0462 15.278 10.651 23.322 5.8183 8.047-4.835 10.651-15.28 5.8163-23.326-3.3248-5.532-9.2993-8.4919-15.324-8.2303zm-0.18945 6.4296 0.87107 3.0351c2.4454-0.475 4.5461-0.28253 5.3846 1.8457h-2e-3c0.6159 1.5567 0.22311 2.7107-0.69139 3.5644 1.8854-0.0817 3.2904 0.65055 3.746 3.0625 0.5673 2.994-1.3836 4.3996-4.4393 5.4687l0.87888 3.0664-1.8496 0.52929-0.86521-3.0234c-0.4788 0.1377-0.97103 0.2736-1.4804 0.4082l0.87107 3.039-1.8457 0.52929-0.88279-3.0722c-0.4327 0.1209-0.87453 0.23938-1.3222 0.36718l-2.4062 0.6914-0.26562-2.3125s1.3733-0.37251 1.3437-0.38671c0.5227-0.1508 0.55422-0.56553 0.51952-0.81053l-1.3886-4.8456 0.19531-0.05664c-0.0793 0.0114-0.14751 0.02847-0.19921 0.04297l-0.99212-3.457c-0.178-0.3549-0.54629-0.72025-1.2949-0.50585 0.0155-0.0316-1.3418 0.38671-1.3418 0.38671l-0.56639-1.9746 2.5488-0.73046 2e-3 0.0098c0.383-0.1101 0.77404-0.23061 1.1718-0.35351l-0.86916-3.0351 1.8476-0.52929 0.85154 2.9765c0.4905-0.1513 0.98536-0.30425 1.4707-0.44335l-0.84764-2.955zm0.77732 5.4628c-1.0041 0.08315-2.0601 0.47719-2.582 0.62694l1.0586 3.6894c1.0436-0.2995 4.389-0.99604 3.7909-3.0839-0.31205-1.0888-1.2634-1.3156-2.2675-1.2324zm2.9784 5.4062c-1.3982-0.11721-3.1856 0.54716-3.9686 0.77147l1.1679 4.0683c1.2528-0.3601 5.256-1.2248 4.5975-3.5195v-2e-3c-0.25785-0.89718-0.95792-1.248-1.7968-1.3183z" stroke-width=".99998"/>
</svg>
