<svg width="34" height="34" version="1.1" viewBox="0 0 34 34" xmlns="http://www.w3.org/2000/svg">
 <path d="m17.704 0.015242c-7.898-0.33574-15.21 4.9039-17.195 12.874-2.271 9.1073 3.2719 18.331 12.377 20.602 9.1102 2.2708 18.336-3.2704 20.605-12.378 2.27-9.1073-3.2723-18.334-12.381-20.603-1.1384-0.28386-2.2781-0.44614-3.4063-0.4941zm-1.4024 5.9078 1.8633 0.4648-0.74806 3.0037c0.5005 0.11422 1.0044 0.22934 1.4941 0.35153l0.7422-2.9822 1.8672 0.4648-0.76368 3.0642c2.3553 0.81123 4.0762 2.0266 3.7383 4.2887-0.24491 1.656-1.1621 2.458-2.3809 2.74 1.6737 0.87183 2.5243 2.2067 1.713 4.523-1.0058 2.8764-3.3993 3.1193-6.5802 2.5174l-0.7715 3.0936-1.8653-0.4648 0.76173-3.0526c-0.4835-0.12-0.97795-0.24665-1.4864-0.38473l-0.76368 3.0662-1.8633-0.4648 0.7715-3.0994c-0.4352-0.1115-0.87849-0.23054-1.3301-0.34372l-2.4278-0.60541 0.9258-2.1346s1.3741 0.36497 1.3555 0.33786c0.52811 0.13069 0.76299-0.21385 0.85548-0.44332l1.2207-4.8902 0.19727 0.04884c-0.0744-0.0298-0.14332-0.04919-0.19532-0.0625l0.87112-3.4899c0.0233-0.39636-0.11354-0.89727-0.86915-1.0858 0.0293-0.0197-1.3555-0.33591-1.3555-0.33591l0.4961-1.992 2.5723 0.64253-2e-3 0.0078c0.3868 0.09616 0.78553 0.18879 1.1914 0.28122zm0.61134 5.6714-0.9297 3.7243c1.0536 0.26248 4.3002 1.3336 4.8263-0.77338 0.54832-2.1979-2.843-2.6885-3.8965-2.9509zm-1.3965 5.6051-1.0254 4.1051c1.2651 0.31448 5.1652 1.5664 5.7423-0.74994 0.60092-2.4156-3.4524-3.0396-4.7168-3.3552z" stroke-width="1.4238"/>
</svg>
