<svg version="1.1" viewBox="0 0 23.873 23.873" xmlns="http://www.w3.org/2000/svg">
 <path d="m12.435 0.011087c-5.5467-0.23581-10.682 3.4443-12.076 9.0422-1.5949 6.3966 2.2978 12.875 8.6924 14.47 6.398 1.5949 12.877-2.297 14.471-8.6938 1.5942-6.3966-2.2981-12.877-8.6952-14.471-0.79949-0.19937-1.5999-0.31335-2.3922-0.34704zm-0.98488 4.1494 1.3086 0.32646-0.52536 2.1097c0.3515 0.080225 0.70536 0.16108 1.0493 0.2469l0.52124-2.0946 1.3113 0.32646-0.53633 2.1522c1.6541 0.56978 2.8627 1.4234 2.6254 3.0122-0.172 1.1631-0.81612 1.7264-1.6721 1.9245 1.1754 0.61234 1.7728 1.5499 1.203 3.1768-0.70638 2.0203-2.3873 2.1909-4.6212 1.7681l-0.54182 2.1728-1.31-0.32646 0.53496-2.144c-0.33956-0.084277-0.68681-0.17324-1.0439-0.27022l-0.53633 2.1536-1.3086-0.32646 0.54182-2.1769c-0.30564-0.078307-0.61696-0.16192-0.93412-0.24142l-1.705-0.42522 0.65018-1.4993s0.96502 0.25634 0.95196 0.2373c0.37089 0.09179 0.53584-0.1502 0.6008-0.31137l0.85731-3.4347 0.13854 0.0343c-0.052252-0.02093-0.10065-0.03455-0.13717-0.0439l0.61178-2.4512c0.016364-0.27839-0.07974-0.63021-0.6104-0.76266 0.020578-0.013835-0.95196-0.23593-0.95196-0.23593l0.34841-1.3991 1.8065 0.45129-0.0014 0.00548c0.27165 0.067541 0.55167 0.1326 0.83673 0.19752zm0.42934 3.9834-0.65292 2.6158c0.73995 0.18436 3.02 0.93664 3.3895-0.54319 0.38508-1.5437-1.9966-1.8883-2.7365-2.0726zm-0.98076 3.9368-0.72014 2.8833c0.88849 0.22088 3.6275 1.1002 4.0328-0.52673 0.42202-1.6966-2.4246-2.1349-3.3126-2.3566z"/>
</svg>
