<svg width="34" height="34" version="1.1" viewBox="0 0 34 34" xmlns="http://www.w3.org/2000/svg">
 <defs>
  <style>.cls-1 {
        fill: #3468d1;
      }

      .cls-2 {
        fill: #fff;
        fill-rule: evenodd;
      }</style>
 </defs>
 <path d="m17 0a17.001 17.001 0 0 0-17 17 17.001 17.001 0 0 0 17 17 17.001 17.001 0 0 0 17-17 17.001 17.001 0 0 0-17-17zm0.08632 5.1794a0.69532 0.69532 0 0 1 0.04604 0 0.69546 0.69546 0 1 1-0.69634 0.69634 0.69532 0.69532 0 0 1 0.6503-0.69634zm-6.1347 0.69634a0.5795 0.5795 0 0 1 0.04028 0 0.5795 0.5795 0 1 1-0.58125 0.58125 0.5795 0.5795 0 0 1 0.54096-0.58125zm12.287 0a0.5795 0.5795 0 0 1 0.04028 0 0.5795 0.5795 0 1 1-0.58125 0.58125 0.5795 0.5795 0 0 1 0.54096-0.58125zm-10.629 2.4343a0.86919 0.86919 0 0 1 0.0633 0 0.86919 0.86919 0 1 1-0.86899 0.86899 0.86919 0.86919 0 0 1 0.80569-0.86899zm8.9259 0a0.86919 0.86919 0 0 1 0.0633 0 0.86919 0.86919 0 1 1-0.86899 0.86899 0.86919 0.86919 0 0 1 0.80569-0.86899zm-4.4773 0.69634a1.0431 1.0431 0 0 1 0.07481 0 1.0431 1.0431 0 1 1-1.0416 1.0416 1.0431 1.0431 0 0 1 0.96682-1.0416zm-9.5934 1.738a0.69546 0.69546 0 0 1 0.046039 0 0.69546 0.69546 0 1 1-0.69059 0.69635 0.69546 0.69546 0 0 1 0.64455-0.69635zm19.244 0a0.69546 0.69546 0 0 1 0.04604 0 0.69546 0.69546 0 1 1-0.69634 0.69635 0.69546 0.69546 0 0 1 0.6503-0.69635zm-11.602 1.0416a1.6805 1.6805 0 1 1-1.6804 1.6804 1.6807 1.6807 0 0 1 1.6804-1.6804zm4.0572 0a1.6805 1.6805 0 1 1-1.6804 1.6804 1.6807 1.6807 0 0 1 1.6804-1.6804zm-8.1317 0.69635a1.0432 1.0432 0 0 1 0.07482 0 1.0431 1.0431 0 1 1-1.0416 1.0416 1.0432 1.0432 0 0 1 0.96682-1.0416zm12.057 0a1.0431 1.0431 0 0 1 0.07482 0 1.0431 1.0431 0 1 1-1.0474 1.0416 1.0431 1.0431 0 0 1 0.97258-1.0416zm-10.071 2.8947a1.6805 1.6805 0 1 1-1.6804 1.6804 1.6807 1.6807 0 0 1 1.6804-1.6804zm8.2295 0a1.6805 1.6805 0 1 1-1.6804 1.6804 1.6806 1.6806 0 0 1 1.6804-1.6804zm-13.156 0.69634a0.86919 0.86919 0 0 1 0.057548 0 0.86919 0.86919 0 1 1-0.86899 0.86899 0.86919 0.86919 0 0 1 0.81144-0.86899zm17.967 0a0.86932 0.86932 0 0 1 0.05755 0 0.86919 0.86919 0 1 1-0.86899 0.86899 0.86932 0.86932 0 0 1 0.81144-0.86899zm-21.138 0.35105a0.5795 0.5795 0 0 1 0.040285 0 0.5795 0.5795 0 1 1-0.57549 0.57549 0.5795 0.5795 0 0 1 0.53521-0.57549zm24.343 0a0.5795 0.5795 0 0 1 0.04028 0 0.5795 0.5795 0 1 1-0.57549 0.57549 0.5795 0.5795 0 0 1 0.53521-0.57549zm-14.157 2.4286a1.6805 1.6805 0 1 1-1.6804 1.6804 1.6806 1.6806 0 0 1 1.6804-1.6804zm4.0572 0a1.6805 1.6805 0 1 1-1.6804 1.6804 1.6806 1.6806 0 0 1 1.6804-1.6804zm-8.0569 0.58125a1.0431 1.0431 0 1 1-1.0416 1.0416 1.0432 1.0432 0 0 1 1.0416-1.0416zm12.057 0a1.0431 1.0431 0 1 1-1.0474 1.0416 1.0431 1.0431 0 0 1 1.0474-1.0416zm-15.699 2.4343a0.69546 0.69546 0 0 1 0.046039 0 0.69546 0.69546 0 1 1-0.69059 0.69635 0.69546 0.69546 0 0 1 0.64455-0.69635zm19.244 0a0.69546 0.69546 0 0 1 0.04604 0 0.69546 0.69546 0 1 1-0.69634 0.69635 0.69546 0.69546 0 0 1 0.6503-0.69635zm-9.5762 1.0416a1.0431 1.0431 0 1 1-1.0416 1.0474 1.0431 1.0431 0 0 1 1.0416-1.0474zm-4.5234 1.0474a0.86919 0.86919 0 0 1 0.0633 0 0.86919 0.86919 0 1 1-0.86899 0.86899 0.86919 0.86919 0 0 1 0.80569-0.86899zm8.9259 0a0.86919 0.86919 0 0 1 0.0633 0 0.86919 0.86919 0 1 1-0.86899 0.86899 0.86919 0.86919 0 0 1 0.80569-0.86899zm-10.583 3.0098a0.5795 0.5795 0 0 1 0.04028 0 0.5795 0.5795 0 1 1-0.58125 0.58125 0.5795 0.5795 0 0 1 0.54096-0.58125zm12.287 0a0.5795 0.5795 0 0 1 0.04028 0 0.5795 0.5795 0 1 1-0.58125 0.58125 0.5795 0.5795 0 0 1 0.54096-0.58125zm-6.152 0.46615a0.69546 0.69546 0 0 1 0.04604 0 0.69546 0.69546 0 1 1-0.69634 0.69059 0.69546 0.69546 0 0 1 0.6503-0.69059z" fill="#3468d1" stroke-width=".13282"/>
</svg>
