<svg width="34" height="34" version="1.1" viewBox="0 0 34 34" xmlns="http://www.w3.org/2000/svg">
 <defs>
  <style>.cls-1 {
        fill: #3468d1;
      }

      .cls-2 {
        fill: #fff;
        fill-rule: evenodd;
      }</style>
  <style>.cls-1 {
        fill: #3468d1;
      }

      .cls-2 {
        fill: #fff;
        fill-rule: evenodd;
      }</style>
 </defs>
 <path d="m16.994 0c-9.3952 0-16.994 7.6077-16.994 17 0 9.3922 7.6102 17 16.994 17 9.3952 0 17.006-7.608 17.006-17 0-9.3922-7.6104-17-17.006-17zm-4.0842 9.5562h6.6796c5.8692 0 6.9093 3.1965 6.0662 7.6955-0.55845 3.0212-1.9599 5.3309-4.3032 6.4146-1.0512 0.49259-2.0588 0.76626-4.4021 0.76626h-6.6575l0.55841-3.0978h5.8583c3.5259 0.0109 4.4567-1.5218 4.9166-2.8572 0.1752-0.50354 0.56927-2.047 0.58023-2.9665 0.0219-1.7843-0.85394-2.857-3.8214-2.857l-6.0226-0.0109zm-2.869 5.8893h6.8329s-0.0657 0.37214-0.28466 1.2698c-0.16425 0.68963-0.41619 1.8282-2.1682 1.8282h-6.8329s0.0659-0.37235 0.28487-1.27c0.16425-0.68964 0.41598-1.828 2.168-1.828z"/>
</svg>
