<svg width="34" height="34" version="1.1" viewBox="0 0 34 34" xmlns="http://www.w3.org/2000/svg">
 <g transform="translate(1.9672e-6 -.0039787)">
  <path d="m33.492 21.115c-2.2708 9.1082-11.496 14.651-20.606 12.38-9.1051-2.2708-14.648-11.496-12.377-20.604 2.2698-9.1094 11.495-14.653 20.602-12.382 9.1087 2.2708 14.652 11.498 12.381 20.606z" fill="#5276f7"/>
  <path d="m16.753 6-0.1475 0.50131v14.547l0.1475 0.1472 6.7524-3.9914z" fill="#f0f0f0"/>
  <path d="m16.752 6-6.7525 11.204 6.7525 3.9915v-7.0606z" fill="#fff"/>
  <path d="m16.752 22.474-0.0832 0.1014v5.1819l0.0832 0.2427 6.7565-9.5153z" fill="#f0f0f0"/>
  <path d="m16.752 28v-5.5261l-6.7525-3.9894z" fill="#fff"/>
  <path d="m16.752 21.196 6.7524-3.9914-6.7524-3.0692z" fill="#ccc"/>
  <path d="m10 17.204 6.7524 3.9914v-7.0605z" fill="#eee"/>
 </g>
</svg>
