<svg width="34" height="34" version="1.1" viewBox="0 0 34 34" xmlns="http://www.w3.org/2000/svg">
 <defs>
  <style>.cls-1 {
        fill: #3468d1;
      }

      .cls-2 {
        fill: #fff;
        fill-rule: evenodd;
      }</style>
  <style>.cls-1 {
        fill: #3468d1;
      }

      .cls-2 {
        fill: #fff;
        fill-rule: evenodd;
      }</style>
 </defs>
 <g transform="matrix(.99998 0 0 .99989 -8.5866e-5 -.00014418)">
  <path d="m17.703 0.015625c-7.8976-0.33573-15.207 4.9032-17.193 12.873-2.2709 9.107 3.2701 18.331 12.375 20.602 9.1098 2.2707 18.335-3.2698 20.605-12.377 2.2709-9.107-3.2704-18.333-12.379-20.604-1.1383-0.28384-2.28-0.44618-3.4082-0.49414zm-0.95117 5.9844 6.752 11.201v2e-3h-2e-3l-6.75 3.9902-6.7519-3.9922zm-6.752 12.482 6.752 3.9883 6.7559-3.9883-6.7559 9.5137z"/>
 </g>
</svg>
