<svg width="34" height="34" version="1.1" viewBox="0 0 34 34" xmlns="http://www.w3.org/2000/svg">
 <defs>
  <style>.cls-1 {
        fill: #3468d1;
      }

      .cls-2 {
        fill: #fff;
        fill-rule: evenodd;
      }</style>
 </defs>
 <g transform="translate(0,2)" fill-rule="evenodd">
  <circle cx="17" cy="15" r="17" fill="#328332" stroke-width="1.0625"/>
  <g transform="translate(1.0115 -.9765)" fill="#fff">
   <path d="m15.989 16.553-6.721-0.577 6.72-3.802zm0 4.46v6.94c-2.337-3.638-4.913-7.642-6.989-10.883 2.45 1.38 5.008 2.823 6.989 3.944zm0-10.068-6.989 3.9 6.989-10.845z" fill-rule="nonzero"/>
   <path d="m22.71 15.976-6.721 0.577v-4.379zm-6.721 5.038c1.98-1.12 4.537-2.564 6.988-3.944-2.076 3.242-4.652 7.246-6.988 10.882zm0-10.069v-6.945l6.988 10.845z" fill-opacity=".601" fill-rule="nonzero"/>
   <path d="m15.989 16.553 6.72-0.577-6.72 3.775z" opacity=".2"/>
   <path d="m15.988 16.553-6.721-0.577 6.721 3.775z" opacity=".603"/>
  </g>
 </g>
</svg>
