<svg width="34" height="34" version="1.1" viewBox="0 0 34 34" xmlns="http://www.w3.org/2000/svg">
 <defs>
  <style>.cls-1 {
        fill: #3468d1;
      }

      .cls-2 {
        fill: #fff;
        fill-rule: evenodd;
      }</style>
  <style>.cls-1 {
        fill: #3468d1;
      }

      .cls-2 {
        fill: #fff;
        fill-rule: evenodd;
      }</style>
  <style>.cls-1 {
        fill: #3468d1;
      }

      .cls-2 {
        fill: #fff;
        fill-rule: evenodd;
      }</style>
 </defs>
 <path d="m17 0a17 17 0 0 0-17 17 17 17 0 0 0 17 17 17 17 0 0 0 17-17 17 17 0 0 0-17-17zm0 5.0234 6.9883 10.846-6.9883-3.9004-6.9883 3.9004zm0 8.1738 6.7207 3.8027-6.7207 3.7754-6.7207-3.7754zm-6.9883 4.8965c2.45 1.38 5.0073 2.8224 6.9883 3.9434 1.98-1.12 4.5373-2.5634 6.9883-3.9434-2.076 3.242-4.6523 7.2449-6.9883 10.881-2.3368-3.6376-4.9125-7.6403-6.9883-10.881z"/>
</svg>
