<svg width="34" height="34" version="1.1" viewBox="0 0 34 34" xmlns="http://www.w3.org/2000/svg">
 <defs>
  <style>.cls-1 {
        fill: #3468d1;
      }

      .cls-2 {
        fill: #fff;
        fill-rule: evenodd;
      }</style>
  <style>.cls-1 {
        fill: #3468d1;
      }

      .cls-2 {
        fill: #fff;
        fill-rule: evenodd;
      }</style>
  <style>.cls-1 {
        fill: #3468d1;
      }

      .cls-2 {
        fill: #fff;
        fill-rule: evenodd;
      }</style>
 </defs>
 <path d="m17 0c-9.388 0-17 7.6093-17 16.999 0 9.3888 7.6113 17.001 17 17.001 9.3877 0 17-7.6119 17-17.001 0-9.3885-7.6116-16.999-17-16.999zm0.089 6.4086c0.38251 0 0.75364 0.1529 1.0263 0.42558l9.1394 9.1373c0.55793 0.55798 0.55793 1.4948 0 2.0528l-9.1394 9.1402c-0.55793 0.55798-1.4947 0.55798-2.0526 0l-9.1365-9.1402c-0.5579-0.55799-0.5579-1.4948 0-2.0528l9.1365-9.1373c0.27267-0.27267 0.64379-0.42558 1.0263-0.42558zm0 4.3308-6.2579 6.2584 6.2579 6.2584 6.2579-6.2584z"/>
</svg>
