<svg version="1.1" viewBox="0 0 23.873 23.873" xmlns="http://www.w3.org/2000/svg">
 <path d="m11.937 5.75e-8c-6.5926 0-11.938 5.3431-11.938 11.936 0 6.5926 5.3449 11.938 11.938 11.938 6.5924 0 11.938-5.3449 11.938-11.938 0-6.5924-5.3451-11.936-11.938-11.936zm0.0625 4.5c0.26861 0 0.52923 0.10736 0.7207 0.29883l6.418 6.416c0.3918 0.3918 0.3918 1.0496 0 1.4414l-6.418 6.418c-0.3918 0.3918-1.0496 0.3918-1.4414 0l-6.416-6.418c-0.39178-0.39181-0.39178-1.0496 0-1.4414l6.416-6.416c0.19148-0.19146 0.45209-0.29883 0.7207-0.29883zm0 3.041-4.3945 4.3945 4.3945 4.3945 4.3945-4.3945z"/>
</svg>
