<svg width="34" height="34" version="1.1" viewBox="0 0 34 34" xmlns="http://www.w3.org/2000/svg">
 <path d="m34 17c0 9.3889-7.611 17-17 17-9.389 0-17-7.6112-17-17 0-9.3888 7.6111-17 17-17 9.3887 0 17 7.6111 17 17z" fill="#bebebe"/>
 <path d="m30.391 17c0 7.395-5.9952 13.391-13.391 13.391-7.3953 0-13.391-5.9957-13.391-13.391 0-7.3956 5.9956-13.391 13.391-13.391 7.3955 0 13.391 5.9952 13.391 13.391z" fill="#bebebe"/>
 <path d="m16.007 21.541 1.1041-4.1577 2.6142-0.9551 0.6503-2.4435-0.0222-0.0607-2.5733 0.9401 1.8541-6.9814h-5.2583l-2.4247 9.1109-2.0244 0.7396-0.66894 2.5191 2.0229-0.7389-1.429 5.3694h13.994l0.8972-3.3418z" fill="#fff"/>
</svg>
