<svg width="34" height="34" version="1.1" viewBox="0 0 34 34" xmlns="http://www.w3.org/2000/svg">
 <g transform="translate(1.9672e-6 -1.1555)">
  <path d="m33.492 22.115c-2.2708 9.1082-11.496 14.651-20.606 12.38-9.1051-2.2708-14.648-11.496-12.377-20.604 2.2698-9.1094 11.495-14.653 20.602-12.382 9.1087 2.2708 14.652 11.498 12.381 20.606z" fill="#fff"/>
  <path d="m17 0.95898c-9.3872 0-17 7.6124-17 17 0 1.8762 0.30414 3.681 0.86567 5.3696h5.0843v-14.303l11.05 11.05 11.05-11.05v14.303h5.0844c0.5619-1.6886 0.866-3.4933 0.866-5.3696-1e-4 -9.3877-7.6128-17-17-17z" fill="#f60"/>
  <path d="m14.459 22.813-4.8225-4.8226v9.0001h-7.1631c2.9843 4.8958 8.374 8.1653 14.526 8.1653 6.1522 0 11.542-3.2695 14.526-8.1653h-7.163v-9.0002l-4.8224 4.8224-2.5407 2.5406-2.5405-2.5405h-2e-4z" fill="#4c4c4c"/>
 </g>
</svg>
