<svg width="34" height="34" version="1.1" viewBox="0 0 34 34" xmlns="http://www.w3.org/2000/svg">
 <defs>
  <style>.cls-1 {
        fill: #3468d1;
      }

      .cls-2 {
        fill: #fff;
        fill-rule: evenodd;
      }</style>
  <style>.cls-1 {
        fill: #3468d1;
      }

      .cls-2 {
        fill: #fff;
        fill-rule: evenodd;
      }</style>
  <style>.cls-1 {
        fill: #3468d1;
      }

      .cls-2 {
        fill: #fff;
        fill-rule: evenodd;
      }</style>
 </defs>
 <path d="m17 0c-9.387 0-17 7.5688-17 16.902 0 1.8654 0.30372 3.659 0.86523 5.3379h5.084v-14.221l11.051 10.986 11.049-10.986v14.221h5.084c0.56189-1.6789 0.86719-3.4724 0.86719-5.3379-1e-4 -9.3337-7.613-16.902-17-16.902zm-7.3633 16.934v8.9473h-7.1641c2.9842 4.8676 8.3735 8.1191 14.525 8.1191 6.152 0 11.543-3.2515 14.527-8.1191h-7.1641v-8.9473l-4.8223 4.7949-2.541 2.5254-2.5391-2.5254z"/>
</svg>
