<svg width="34" height="34" version="1.1" viewBox="0 0 34 34" xmlns="http://www.w3.org/2000/svg">
 <defs>
  <style>.cls-1 {
        fill: #3468d1;
      }

      .cls-2 {
        fill: #fff;
        fill-rule: evenodd;
      }</style>
  <style>.cls-1 {
        fill: #3468d1;
      }

      .cls-2 {
        fill: #fff;
        fill-rule: evenodd;
      }</style>
  <style>.cls-1 {
        fill: #3468d1;
      }

      .cls-2 {
        fill: #fff;
        fill-rule: evenodd;
      }</style>
  <style>.cls-1 {
        fill: #3468d1;
      }

      .cls-2 {
        fill: #fff;
        fill-rule: evenodd;
      }</style>
 </defs>
 <path d="m17 0a17 17 0 0 0-17 17 17 17 0 0 0 17 17 17 17 0 0 0 17-17 17 17 0 0 0-17-17zm-8.3527 5.7054c0.1936 8e-3 0.37528 0.0567 0.53831 0.1027 0.0669 0.0167 0.12817 0.0335 0.18948 0.0502 2.4079 0.58525 4.8104 1.1702 7.2182 1.7554 2.6531 0.64656 5.3953 1.3158 8.093 1.9679l0.0112 5e-3c0.15606 0.0502 0.28399 0.13951 0.39547 0.22312 0.0279 0.0167 0.0503 0.0334 0.0726 0.0502 1.0089 0.71344 2.0401 1.4322 3.0044 2.1066 0.32328 0.2118 0.31775 0.61297 0.30103 0.80806v0.0673l-0.039 0.0555c-0.74131 1.0646-1.4883 2.1573-2.2129 3.2163-0.44033 0.64099-0.88067 1.2874-1.321 1.9284-1.0757 1.5662-2.1518 3.1381-3.2275 4.7044l-4.4145 6.4379c-0.1059 0.18951-0.31753 0.30634-0.5572 0.30634h-0.0555c-0.2564-0.0223-0.46291-0.1672-0.53537-0.39016-1.1761-3.2774-2.3798-6.6162-3.5392-9.8378-1.5049-4.1859-3.0658-8.511-4.5875-12.775l-0.0112-0.039v-0.25676l0.0171-0.0443c0.0279-0.0725 0.0836-0.2007 0.18948-0.30103l0.0667-0.0561c0.0613-0.039 0.12797-0.0668 0.206-0.0779 0.0669-8e-3 0.13321-0.0102 0.19774-8e-3zm1.5246 1.6521c0.10591 0.12819 0.21192 0.25074 0.31225 0.37894 0.15607 0.18951 0.31234 0.39039 0.47398 0.57432l5e-3 5e-3c0.71345 0.85837 1.4327 1.7222 2.1462 2.5806 1.5718 1.8895 3.1937 3.846 4.7823 5.7745 0.81935-0.87509 1.6442-1.7615 2.4413-2.6255 1.0479-1.1259 2.1294-2.2906 3.2051-3.4388-3.2328-0.7859-6.4716-1.5716-9.7044-2.3575-0.5741-0.14492-1.1588-0.28473-1.7218-0.4185-0.64099-0.15049-1.2936-0.30617-1.9402-0.47338zm-0.6298 0.71303c0.0669 0.19508 0.14535 0.4014 0.2178 0.60206 1.8895 5.2617 3.7787 10.513 5.6682 15.769l0.59616 1.6551c0.078 0.22853 0.16194 0.46293 0.24554 0.68588 0.0279 0.078 0.0613 0.16135 0.0891 0.24496 0.0502-0.4682 0.095-0.93655 0.1452-1.3936 0.11705-1.1036 0.23966-2.2403 0.33999-3.3662l5e-3 -0.039s0.0891-0.76909 0.12809-1.1091c0.0279-0.24525 0.0612-0.49645 0.0779-0.74727v-5e-3c0.0446-0.39574 0.0838-0.78622 0.12278-1.1764 0.0613-0.55738 0.11727-1.1371 0.18416-1.7112-0.20623-0.22853-0.39603-0.46798-0.58554-0.6965-0.14492-0.17837-0.29515-0.36258-0.44564-0.53537-0.76361-0.92525-1.5272-1.8392-2.2908-2.7589-1.4771-1.7725-2.9934-3.6009-4.4984-5.418zm14.977 2.8763c-0.0613 0.0725-0.12816 0.13406-0.18947 0.19538-0.0892 0.0892-0.17276 0.1723-0.23965 0.26148l-0.0171 0.0171c-0.79148 0.84722-1.5998 1.7109-2.3746 2.547-0.61869 0.66328-1.2424 1.3324-1.8611 1.9957 1.0646-0.55181 2.1235-1.1091 3.1602-1.6498 1.1872-0.62427 2.4133-1.2657 3.6395-1.89-0.30098-0.20624-0.59614-0.41236-0.88598-0.61859-0.40131-0.28427-0.8194-0.57397-1.2319-0.85824zm1.9726 2.6142c-1.3098 0.68558-2.6306 1.3764-3.9181 2.0452-1.2931 0.66886-2.5804 1.3437-3.868 2.0181-0.0836 0.0502-0.16725 0.0838-0.25086 0.12278-0.0725 0.0279-0.13937 0.061-0.20068 0.0944-0.0335 0.49606-0.0895 0.99216-0.14521 1.4715l-0.0165 0.13399c-0.0669 0.75246-0.1504 1.5211-0.22843 2.2624-0.0502 0.46263-0.10035 0.94757-0.15052 1.4213-0.0557 0.59083-0.12285 1.1932-0.18416 1.7784-0.0725 0.65771-0.13905 1.3321-0.19478 2.001 0.4459-0.66328 0.90283-1.3267 1.3487-1.9732 0.39574-0.57968 0.81344-1.1817 1.2148-1.7725 1.02-1.4771 2.0457-2.9763 3.0434-4.4311 1.1594-1.7 2.3576-3.4446 3.5504-5.1724z"/>
</svg>
