<svg width="34" height="34" version="1.1" viewBox="0 0 34 34" xmlns="http://www.w3.org/2000/svg">
 <defs>
  <style>.cls-1 {
        fill: #3468d1;
      }

      .cls-2 {
        fill: #fff;
        fill-rule: evenodd;
      }</style>
  <style>.cls-1 {
        fill: #3468d1;
      }

      .cls-2 {
        fill: #fff;
        fill-rule: evenodd;
      }</style>
  <style>.cls-1 {
        fill: #3468d1;
      }

      .cls-2 {
        fill: #fff;
        fill-rule: evenodd;
      }</style>
  <style>.cls-1 {
        fill: #3468d1;
      }

      .cls-2 {
        fill: #fff;
        fill-rule: evenodd;
      }</style>
  <style>.cls-1 {
        fill: #3468d1;
      }

      .cls-2 {
        fill: #fff;
        fill-rule: evenodd;
      }</style>
 </defs>
 <style type="text/css">.st0{fill:#231F20;}
	.st1{fill:#F4B728;}</style>
 <g transform="matrix(.075421 0 0 .075421 -1.5084 -1.5084)">
  <path class="st0" d="m245.4 20c-124.3 0-225.4 101.1-225.4 225.4s101.1 225.4 225.4 225.4 225.4-101.1 225.4-225.4-101.1-225.4-225.4-225.4zm0 413.6c-103.8 0-188.2-84.4-188.2-188.2s84.4-188.2 188.2-188.2 188.2 84.4 188.2 188.2-84.4 188.2-188.2 188.2z" fill="#231f20"/>
  <circle class="st1" cx="245.4" cy="245.4" r="177.6" fill="#f4b728"/>
  <polygon class="st0" points="325.8 140.6 264.3 140.6 264.3 103 226.5 103 226.5 140.6 165 140.6 165 186.2 260.4 186.2 165 315.5 165 349.9 226.5 349.9 226.5 387.6 264.3 387.6 264.3 349.9 325.8 349.9 325.8 304.4 230.4 304.4 325.8 175" fill="#231f20"/>
 </g>
</svg>
