<svg version="1.1" viewBox="0 0 48.309 46.898" xmlns="http://www.w3.org/2000/svg">
 <path d="m23.194 0.41417-17.963 17.965c-0.60796 0.56281-0.54763 1.0895 0 1.5898l8.3418 8.3418c-5.2403 6.987-9.0169 12.025-13.451 17.938-0.27511 0.33752-0.080367 0.67378 0.53906 0.64844h47.229c0.45985-0.08617 0.49428-0.47479 0.32812-0.70703l-13.588-18.115 8.1113-8.1094c0.48897-0.4551 0.49909-1.1347 0-1.582l-17.969-17.969c-0.48311-0.50566-1.0014-0.59692-1.5781 0zm0.78906 4.0879c0.25382-2.1e-6 0.50761 0.099389 0.70703 0.29883l13.666 13.666c0.39881 0.39881 0.39881 1.0153 0 1.4141l-5.6406 5.6406-7.9316-10.574c-0.32069-0.52838-0.86923-0.52335-1.1875 0-0.68598 0.91481-5.2943 7.0612-8.1074 10.812l-5.8789-5.8789c-0.39884-0.39882-0.39884-1.0152 0-1.4141l13.666-13.666c0.19949-0.19947 0.45321-0.29883 0.70703-0.29883zm0.20703 16.146c0.24341-6e-6 0.47158 0.09687 0.64062 0.32226l5.3301 7.1055-5.4707 5.4707c-0.39884 0.39884-1.0151 0.39891-1.4141 0l-5.2324-5.2324 5.5078-7.3438c0.17008-0.22678 0.39526-0.32226 0.63867-0.32226zm7.8848 9.9805 8.5742 11.434c0.44106 0.58802 0.09647 1.2793-0.63867 1.2793h-31.639c-0.73514 0-1.0797-0.69128-0.63867-1.2793l8.3965-11.195 7.0605 7.0605c0.5137 0.38469 1.2985 0.27044 1.5859 0z"/>
</svg>
