<svg width="49.111" height="47.271" version="1.1" viewBox="0 0 49.111 47.271" xmlns="http://www.w3.org/2000/svg">
 <path d="m24.348 0-19.547 19.549 9.1367 9.1367c-5.4297 7.2396-9.2915 12.391-13.938 18.586h49.111l-14.117-18.822 8.9023-8.9004zm0 4.877c0.25382-2.1e-6 0.50761 0.099391 0.70703 0.29883l13.666 13.666c0.39881 0.39881 0.39881 1.0153 0 1.4141l-5.6406 5.6406-8.5254-11.365s-5.6822 7.5782-8.7012 11.604l-5.8789-5.8789c-0.39884-0.39882-0.39884-1.0152 0-1.4141l13.666-13.666c0.19949-0.19947 0.45321-0.29883 0.70703-0.29883zm0.20703 16.146c0.24341-6e-6 0.47158 0.09686 0.64062 0.32226l5.3301 7.1055-5.4707 5.4707c-0.39884 0.39884-1.0151 0.39891-1.4141 0l-5.2324-5.2324 5.5078-7.3438c0.17008-0.22678 0.39526-0.32226 0.63867-0.32226zm7.8848 9.9805 8.5742 11.434c0.44106 0.58802 0.09647 1.2793-0.63867 1.2793h-31.639c-0.73514 0-1.0797-0.69128-0.63867-1.2793l8.3965-11.195 7.8535 7.8535 0.70703-0.70703z"/>
</svg>
