<svg width="400" height="79" viewBox="0 0 400 79" fill="none" xmlns="http://www.w3.org/2000/svg">
<g filter="url(#filter0_d)">
<path d="M277.748 62.216C276.188 62.216 274.688 62.012 273.248 61.604C271.808 61.172 270.68 60.632 269.864 59.984L271.304 57.248C272.144 57.848 273.164 58.328 274.364 58.688C275.564 59.048 276.776 59.228 278 59.228C281.024 59.228 282.536 58.364 282.536 56.636C282.536 56.06 282.332 55.604 281.924 55.268C281.516 54.932 281 54.692 280.376 54.548C279.776 54.38 278.912 54.2 277.784 54.008C276.248 53.768 274.988 53.492 274.004 53.18C273.044 52.868 272.216 52.34 271.52 51.596C270.824 50.852 270.476 49.808 270.476 48.464C270.476 46.736 271.196 45.356 272.636 44.324C274.076 43.268 276.008 42.74 278.432 42.74C279.704 42.74 280.976 42.896 282.248 43.208C283.52 43.52 284.564 43.94 285.38 44.468L283.904 47.204C282.344 46.196 280.508 45.692 278.396 45.692C276.932 45.692 275.816 45.932 275.048 46.412C274.28 46.892 273.896 47.528 273.896 48.32C273.896 48.944 274.112 49.436 274.544 49.796C274.976 50.156 275.504 50.42 276.128 50.588C276.776 50.756 277.676 50.948 278.828 51.164C280.364 51.428 281.6 51.716 282.536 52.028C283.496 52.316 284.312 52.82 284.984 53.54C285.656 54.26 285.992 55.268 285.992 56.564C285.992 58.292 285.248 59.672 283.76 60.704C282.296 61.712 280.292 62.216 277.748 62.216ZM296.359 60.884C295.855 61.316 295.231 61.652 294.487 61.892C293.743 62.108 292.975 62.216 292.183 62.216C290.263 62.216 288.775 61.7 287.719 60.668C286.663 59.636 286.135 58.16 286.135 56.24V45.764H282.895V42.92H286.135V38.744H289.591V42.92H295.063V45.764H289.591V56.096C289.591 57.128 289.843 57.92 290.347 58.472C290.875 59.024 291.619 59.3 292.579 59.3C293.635 59.3 294.535 59 295.279 58.4L296.359 60.884ZM302.805 42.74C305.445 42.74 307.461 43.388 308.853 44.684C310.269 45.98 310.977 47.912 310.977 50.48V62H307.701V59.48C307.125 60.368 306.297 61.052 305.217 61.532C304.161 61.988 302.901 62.216 301.437 62.216C299.301 62.216 297.585 61.7 296.289 60.668C295.017 59.636 294.381 58.28 294.381 56.6C294.381 54.92 294.993 53.576 296.217 52.568C297.441 51.536 299.385 51.02 302.049 51.02H307.521V50.336C307.521 48.848 307.089 47.708 306.225 46.916C305.361 46.124 304.089 45.728 302.409 45.728C301.281 45.728 300.177 45.92 299.097 46.304C298.017 46.664 297.105 47.156 296.361 47.78L294.921 45.188C295.905 44.396 297.081 43.796 298.449 43.388C299.817 42.956 301.269 42.74 302.805 42.74ZM302.013 59.552C303.333 59.552 304.473 59.264 305.433 58.688C306.393 58.088 307.089 57.248 307.521 56.168V53.504H302.193C299.265 53.504 297.801 54.488 297.801 56.456C297.801 57.416 298.173 58.172 298.917 58.724C299.661 59.276 300.693 59.552 302.013 59.552ZM323.421 60.884C322.917 61.316 322.293 61.652 321.549 61.892C320.805 62.108 320.037 62.216 319.245 62.216C317.325 62.216 315.837 61.7 314.781 60.668C313.725 59.636 313.197 58.16 313.197 56.24V45.764H309.957V42.92H313.197V38.744H316.653V42.92H322.125V45.764H316.653V56.096C316.653 57.128 316.905 57.92 317.409 58.472C317.937 59.024 318.681 59.3 319.641 59.3C320.697 59.3 321.597 59 322.341 58.4L323.421 60.884ZM322.919 42.92H326.375V62H322.919V42.92ZM324.647 39.248C323.975 39.248 323.411 39.032 322.955 38.6C322.523 38.168 322.307 37.64 322.307 37.016C322.307 36.392 322.523 35.864 322.955 35.432C323.411 34.976 323.975 34.748 324.647 34.748C325.319 34.748 325.871 34.964 326.303 35.396C326.759 35.804 326.987 36.32 326.987 36.944C326.987 37.592 326.759 38.144 326.303 38.6C325.871 39.032 325.319 39.248 324.647 39.248ZM333.766 62.216C332.206 62.216 330.706 62.012 329.266 61.604C327.826 61.172 326.698 60.632 325.882 59.984L327.322 57.248C328.162 57.848 329.182 58.328 330.382 58.688C331.582 59.048 332.794 59.228 334.018 59.228C337.042 59.228 338.554 58.364 338.554 56.636C338.554 56.06 338.35 55.604 337.942 55.268C337.534 54.932 337.018 54.692 336.394 54.548C335.794 54.38 334.93 54.2 333.802 54.008C332.266 53.768 331.006 53.492 330.022 53.18C329.062 52.868 328.234 52.34 327.538 51.596C326.842 50.852 326.494 49.808 326.494 48.464C326.494 46.736 327.214 45.356 328.654 44.324C330.094 43.268 332.026 42.74 334.45 42.74C335.722 42.74 336.994 42.896 338.266 43.208C339.538 43.52 340.582 43.94 341.398 44.468L339.922 47.204C338.362 46.196 336.526 45.692 334.414 45.692C332.95 45.692 331.834 45.932 331.066 46.412C330.298 46.892 329.914 47.528 329.914 48.32C329.914 48.944 330.13 49.436 330.562 49.796C330.994 50.156 331.522 50.42 332.146 50.588C332.794 50.756 333.694 50.948 334.846 51.164C336.382 51.428 337.618 51.716 338.554 52.028C339.514 52.316 340.33 52.82 341.002 53.54C341.674 54.26 342.01 55.268 342.01 56.564C342.01 58.292 341.266 59.672 339.778 60.704C338.314 61.712 336.31 62.216 333.766 62.216ZM352.377 60.884C351.873 61.316 351.249 61.652 350.505 61.892C349.761 62.108 348.993 62.216 348.201 62.216C346.281 62.216 344.793 61.7 343.737 60.668C342.681 59.636 342.153 58.16 342.153 56.24V45.764H338.913V42.92H342.153V38.744H345.609V42.92H351.081V45.764H345.609V56.096C345.609 57.128 345.861 57.92 346.365 58.472C346.893 59.024 347.637 59.3 348.597 59.3C349.653 59.3 350.553 59 351.297 58.4L352.377 60.884ZM351.875 42.92H355.331V62H351.875V42.92ZM353.603 39.248C352.931 39.248 352.367 39.032 351.911 38.6C351.479 38.168 351.263 37.64 351.263 37.016C351.263 36.392 351.479 35.864 351.911 35.432C352.367 34.976 352.931 34.748 353.603 34.748C354.275 34.748 354.827 34.964 355.259 35.396C355.715 35.804 355.943 36.32 355.943 36.944C355.943 37.592 355.715 38.144 355.259 38.6C354.827 39.032 354.275 39.248 353.603 39.248ZM365.566 62.216C363.622 62.216 361.882 61.796 360.346 60.956C358.834 60.116 357.646 58.964 356.782 57.5C355.918 56.012 355.486 54.332 355.486 52.46C355.486 50.588 355.918 48.92 356.782 47.456C357.646 45.968 358.834 44.816 360.346 44C361.882 43.16 363.622 42.74 365.566 42.74C367.294 42.74 368.83 43.088 370.174 43.784C371.542 44.48 372.598 45.488 373.342 46.808L370.714 48.5C370.114 47.588 369.37 46.904 368.482 46.448C367.594 45.992 366.61 45.764 365.53 45.764C364.282 45.764 363.154 46.04 362.146 46.592C361.162 47.144 360.382 47.936 359.806 48.968C359.254 49.976 358.978 51.14 358.978 52.46C358.978 53.804 359.254 54.992 359.806 56.024C360.382 57.032 361.162 57.812 362.146 58.364C363.154 58.916 364.282 59.192 365.53 59.192C366.61 59.192 367.594 58.964 368.482 58.508C369.37 58.052 370.114 57.368 370.714 56.456L373.342 58.112C372.598 59.432 371.542 60.452 370.174 61.172C368.83 61.868 367.294 62.216 365.566 62.216ZM378.608 62.216C377.048 62.216 375.548 62.012 374.108 61.604C372.668 61.172 371.54 60.632 370.724 59.984L372.164 57.248C373.004 57.848 374.024 58.328 375.224 58.688C376.424 59.048 377.636 59.228 378.86 59.228C381.884 59.228 383.396 58.364 383.396 56.636C383.396 56.06 383.192 55.604 382.784 55.268C382.376 54.932 381.86 54.692 381.236 54.548C380.636 54.38 379.772 54.2 378.644 54.008C377.108 53.768 375.848 53.492 374.864 53.18C373.904 52.868 373.076 52.34 372.38 51.596C371.684 50.852 371.336 49.808 371.336 48.464C371.336 46.736 372.056 45.356 373.496 44.324C374.936 43.268 376.868 42.74 379.292 42.74C380.564 42.74 381.836 42.896 383.108 43.208C384.38 43.52 385.424 43.94 386.24 44.468L384.764 47.204C383.204 46.196 381.368 45.692 379.256 45.692C377.792 45.692 376.676 45.932 375.908 46.412C375.14 46.892 374.756 47.528 374.756 48.32C374.756 48.944 374.972 49.436 375.404 49.796C375.836 50.156 376.364 50.42 376.988 50.588C377.636 50.756 378.536 50.948 379.688 51.164C381.224 51.428 382.46 51.716 383.396 52.028C384.356 52.316 385.172 52.82 385.844 53.54C386.516 54.26 386.852 55.268 386.852 56.564C386.852 58.292 386.108 59.672 384.62 60.704C383.156 61.712 381.152 62.216 378.608 62.216Z" fill="url(#paint0_linear)"/>
</g>
<g opacity="0.69" filter="url(#filter1_d)">
<path d="M31.352 62.384C27.9813 62.384 24.952 61.6373 22.264 60.144C19.576 58.6507 17.464 56.6027 15.928 54C14.4347 51.3547 13.688 48.368 13.688 45.04C13.688 41.712 14.4347 38.7467 15.928 36.144C17.464 33.4987 19.576 31.4507 22.264 30C24.952 28.5067 27.9813 27.76 31.352 27.76C34.7227 27.76 37.7307 28.5067 40.376 30C43.064 31.4507 45.1547 33.4987 46.648 36.144C48.184 38.7467 48.952 41.712 48.952 45.04C48.952 48.368 48.184 51.3547 46.648 54C45.1547 56.6027 43.064 58.6507 40.376 60.144C37.7307 61.6373 34.7227 62.384 31.352 62.384ZM31.352 57.008C33.528 57.008 35.4693 56.5173 37.176 55.536C38.9253 54.512 40.2907 53.104 41.272 51.312C42.2533 49.4773 42.744 47.3867 42.744 45.04C42.744 42.6933 42.2533 40.624 41.272 38.832C40.2907 36.9973 38.9253 35.5893 37.176 34.608C35.4693 33.6267 33.528 33.136 31.352 33.136C29.176 33.136 27.2133 33.6267 25.464 34.608C23.7573 35.5893 22.392 36.9973 21.368 38.832C20.3867 40.624 19.896 42.6933 19.896 45.04C19.896 47.3867 20.3867 49.4773 21.368 51.312C22.392 53.104 23.7573 54.512 25.464 55.536C27.2133 56.5173 29.176 57.008 31.352 57.008ZM78.2075 28.08L63.3595 62H57.0875L42.2395 28.08H48.6395L60.2875 55.28L72.1915 28.08H78.2075ZM105.34 45.232C105.34 45.7013 105.297 46.32 105.212 47.088H77.692C78.076 50.0747 79.3773 52.4853 81.596 54.32C83.8573 56.112 86.652 57.008 89.98 57.008C94.0333 57.008 97.2973 55.6427 99.772 52.912L103.164 56.88C101.628 58.672 99.708 60.0373 97.404 60.976C95.1427 61.9147 92.604 62.384 89.788 62.384C86.204 62.384 83.0253 61.6587 80.252 60.208C77.4787 58.7147 75.324 56.6453 73.788 54C72.2947 51.3547 71.548 48.368 71.548 45.04C71.548 41.7547 72.2733 38.7893 73.724 36.144C75.2173 33.4987 77.244 31.4507 79.804 30C82.4067 28.5067 85.3293 27.76 88.572 27.76C91.8147 27.76 94.6947 28.5067 97.212 30C99.772 31.4507 101.756 33.4987 103.164 36.144C104.615 38.7893 105.34 41.8187 105.34 45.232ZM88.572 32.944C85.628 32.944 83.1533 33.84 81.148 35.632C79.1853 37.424 78.0333 39.7707 77.692 42.672H99.452C99.1107 39.8133 97.9373 37.488 95.932 35.696C93.9693 33.8613 91.516 32.944 88.572 32.944ZM111.44 33.776C112.506 31.8133 114.085 30.32 116.176 29.296C118.266 28.272 120.805 27.76 123.792 27.76V33.712C123.45 33.6693 122.981 33.648 122.384 33.648C119.056 33.648 116.432 34.6507 114.512 36.656C112.634 38.6187 111.696 41.4347 111.696 45.104V62H105.552V28.08H111.44V33.776ZM154.435 28.08L139.587 62H133.315L118.467 28.08H124.867L136.515 55.28L148.419 28.08H154.435ZM151.849 28.08H157.993V62H151.849V28.08ZM154.921 21.552C153.726 21.552 152.724 21.168 151.913 20.4C151.145 19.632 150.761 18.6933 150.761 17.584C150.761 16.4747 151.145 15.536 151.913 14.768C152.724 13.9573 153.726 13.552 154.921 13.552C156.116 13.552 157.097 13.936 157.865 14.704C158.676 15.4293 159.081 16.3467 159.081 17.456C159.081 18.608 158.676 19.5893 157.865 20.4C157.097 21.168 156.116 21.552 154.921 21.552ZM192.06 45.232C192.06 45.7013 192.017 46.32 191.932 47.088H164.412C164.796 50.0747 166.097 52.4853 168.316 54.32C170.577 56.112 173.372 57.008 176.7 57.008C180.753 57.008 184.017 55.6427 186.492 52.912L189.884 56.88C188.348 58.672 186.428 60.0373 184.124 60.976C181.863 61.9147 179.324 62.384 176.508 62.384C172.924 62.384 169.745 61.6587 166.972 60.208C164.199 58.7147 162.044 56.6453 160.508 54C159.015 51.3547 158.268 48.368 158.268 45.04C158.268 41.7547 158.993 38.7893 160.444 36.144C161.937 33.4987 163.964 31.4507 166.524 30C169.127 28.5067 172.049 27.76 175.292 27.76C178.535 27.76 181.415 28.5067 183.932 30C186.492 31.4507 188.476 33.4987 189.884 36.144C191.335 38.7893 192.06 41.8187 192.06 45.232ZM175.292 32.944C172.348 32.944 169.873 33.84 167.868 35.632C165.905 37.424 164.753 39.7707 164.412 42.672H186.172C185.831 39.8133 184.657 37.488 182.652 35.696C180.689 33.8613 178.236 32.944 175.292 32.944ZM242.975 28.08L230.303 62H224.415L214.623 36.272L204.703 62H198.815L186.207 28.08H192.031L201.887 55.088L212.127 28.08H217.311L227.359 55.216L237.471 28.08H242.975Z" fill="url(#paint1_linear)"/>
</g>
<defs>
<filter id="filter0_d" x="256.864" y="24.748" width="142.988" height="53.468" filterUnits="userSpaceOnUse" color-interpolation-filters="sRGB">
<feFlood flood-opacity="0" result="BackgroundImageFix"/>
<feColorMatrix in="SourceAlpha" type="matrix" values="0 0 0 0 0 0 0 0 0 0 0 0 0 0 0 0 0 0 127 0"/>
<feOffset dy="3"/>
<feGaussianBlur stdDeviation="6.5"/>
<feColorMatrix type="matrix" values="0 0 0 0 0.0183963 0 0 0 0 0.0167002 0 0 0 0 0.0387499 0 0 0 0.13 0"/>
<feBlend mode="normal" in2="BackgroundImageFix" result="effect1_dropShadow"/>
<feBlend mode="normal" in="SourceGraphic" in2="effect1_dropShadow" result="shape"/>
</filter>
<filter id="filter1_d" x="0.688477" y="3.552" width="255.287" height="74.832" filterUnits="userSpaceOnUse" color-interpolation-filters="sRGB">
<feFlood flood-opacity="0" result="BackgroundImageFix"/>
<feColorMatrix in="SourceAlpha" type="matrix" values="0 0 0 0 0 0 0 0 0 0 0 0 0 0 0 0 0 0 127 0"/>
<feOffset dy="3"/>
<feGaussianBlur stdDeviation="6.5"/>
<feColorMatrix type="matrix" values="0 0 0 0 0.0183963 0 0 0 0 0.0167002 0 0 0 0 0.0387499 0 0 0 0.13 0"/>
<feBlend mode="normal" in2="BackgroundImageFix" result="effect1_dropShadow"/>
<feBlend mode="normal" in="SourceGraphic" in2="effect1_dropShadow" result="shape"/>
</filter>
<linearGradient id="paint0_linear" x1="328.5" y1="27" x2="328.5" y2="71" gradientUnits="userSpaceOnUse">
<stop stop-color="#1A2139"/>
<stop offset="1" stop-color="#352B5B"/>
</linearGradient>
<linearGradient id="paint1_linear" x1="123.5" y1="0" x2="123.5" y2="79" gradientUnits="userSpaceOnUse">
<stop stop-color="#606EA3"/>
<stop offset="1" stop-color="#4E4376"/>
</linearGradient>
</defs>
</svg>
