<svg width="49" height="49" viewBox="0 0 49 49" fill="none" xmlns="http://www.w3.org/2000/svg">
<path d="M38.6128 15.2901C43.4476 23.3363 40.8433 33.779 32.7963 38.6146C24.7524 43.4471 14.3093 40.8432 9.47522 32.797C4.63893 24.7508 7.24211 14.3076 15.2872 9.47396C23.3338 4.63879 33.7777 7.24347 38.6128 15.2901Z" fill="#8DCC4E"/>
<path d="M29.3543 18.3698C28.5158 16.2416 26.416 16.0496 23.9706 16.5246L23.1 13.4886L21.2516 14.019L22.0993 16.975C21.614 17.1141 21.1201 17.2661 20.6296 17.4174L19.7766 14.4417L17.9296 14.9713L18.7992 18.0067C18.4014 18.1296 18.0106 18.2497 17.6276 18.3598L17.6246 18.3504L15.0755 19.0804L15.642 21.054C15.642 21.054 16.9992 20.6367 16.9837 20.6683C17.7323 20.4539 18.101 20.8184 18.279 21.1733L19.2709 24.6319C19.3226 24.6174 19.3906 24.6002 19.4699 24.5888L19.2752 24.6448L20.6637 29.4905C20.6984 29.7355 20.6676 30.1508 20.1449 30.3016C20.1745 30.3158 18.8014 30.6865 18.8014 30.6865L19.0673 32.9992L21.4727 32.3093C21.9204 32.1815 22.3629 32.0628 22.7956 31.9419L23.6771 35.0127L25.5232 34.4837L24.6524 31.4453C25.1618 31.3107 25.6535 31.174 26.1323 31.0363L26.9986 34.0607L28.8466 33.5306L27.9683 30.4652C31.024 29.3961 32.9746 27.9896 32.4073 24.9956C31.9517 22.5837 30.5465 21.8521 28.6611 21.9338C29.5756 21.0801 29.9698 19.9267 29.3539 18.37L29.3543 18.3698ZM28.6511 25.6771C29.3096 27.9718 25.3064 28.8376 24.0536 29.1977L22.8875 25.1292C24.1404 24.7703 27.964 23.2842 28.6516 25.6768L28.6511 25.6771ZM26.1452 20.1839C26.7433 22.2718 23.3966 22.9677 22.353 23.2672L21.295 19.5774C22.3387 19.2779 25.5211 18.0062 26.1452 20.1839Z" fill="white"/>
</svg>
