<svg width="34" height="35" viewBox="0 0 34 35" fill="none" xmlns="http://www.w3.org/2000/svg">
<path d="M33.4917 21.1151C31.2209 30.2233 21.9952 35.766 12.8859 33.4951C3.78084 31.2243 -1.76232 21.9987 0.509034 12.891C2.77879 3.78165 12.0039 -1.76204 21.1106 0.50878C30.2193 2.7796 35.7625 12.0063 33.4917 21.1151Z" fill="#5276F7"/>
<path d="M16.753 6L16.6055 6.50131V21.0483L16.753 21.1955L23.5054 17.2041L16.753 6Z" fill="#F0F0F0"/>
<path d="M16.7525 6L10 17.204L16.7525 21.1955V14.1349V6Z" fill="white"/>
<path d="M16.7521 22.4739L16.6689 22.5753V27.7572L16.7521 27.9999L23.5086 18.4846L16.7521 22.4739Z" fill="#F0F0F0"/>
<path d="M16.7525 28.0001V22.474L10 18.4846L16.7525 28.0001Z" fill="white"/>
<path d="M16.752 21.1955L23.5044 17.2041L16.752 14.1349V21.1955Z" fill="#CCCCCC"/>
<path d="M10 17.204L16.7524 21.1954V14.1349L10 17.204Z" fill="#EEEEEE"/>
</svg>
