<svg width="34" height="34" viewBox="0 0 34 34" fill="none" xmlns="http://www.w3.org/2000/svg">
<path d="M33.9999 16.9999C33.9999 26.3888 26.3889 34 17.0001 34C7.61114 34 0 26.3888 0 16.9999C0 7.61111 7.61114 0 17.0001 0C26.3888 0 33.9999 7.61111 33.9999 16.9999Z" fill="#BEBEBE"/>
<path d="M30.3909 17C30.3909 24.395 24.3957 30.3907 17.0003 30.3907C9.60496 30.3907 3.60938 24.395 3.60938 17C3.60938 9.60444 9.60496 3.60919 17.0003 3.60919C24.3958 3.60919 30.3909 9.60434 30.3909 17Z" fill="#BEBEBE"/>
<path d="M16.007 21.5412L17.1111 17.3835L19.7253 16.4284L20.3756 13.9849L20.3534 13.9242L17.7801 14.8643L19.6342 7.88293H14.3759L11.9512 16.9938L9.92675 17.7334L9.25781 20.2525L11.2807 19.5136L9.85168 24.883H23.8459L24.7431 21.5412H16.007Z" fill="white"/>
</svg>
