<svg width="34" height="36" viewBox="0 0 34 36" fill="none" xmlns="http://www.w3.org/2000/svg">
<path d="M33.4917 22.1151C31.2209 31.2233 21.9952 36.766 12.8859 34.4951C3.78084 32.2243 -1.76232 22.9987 0.509034 13.891C2.77879 4.78165 12.0039 -0.762038 21.1106 1.50878C30.2193 3.7796 35.7625 13.0063 33.4917 22.1151Z" fill="white"/>
<path d="M16.9997 0.958984C7.61255 0.958984 0 8.5714 0 17.9589C0 19.8351 0.304141 21.6399 0.865672 23.3285H5.95V9.02509L17 20.0751L28.0497 9.02509V23.3283H33.1341C33.696 21.6397 34.0001 19.835 34.0001 17.9587C34 8.571 26.3873 0.958984 16.9997 0.958984Z" fill="#FF6600"/>
<path d="M14.4592 22.8127L9.63674 17.9901V26.9902H2.47363C5.45793 31.886 10.8476 35.1555 16.9997 35.1555C23.1519 35.1555 28.5421 31.886 31.526 26.9902H24.363V17.99L19.5406 22.8124L16.9999 25.353L14.4594 22.8125H14.4592V22.8127Z" fill="#4C4C4C"/>
</svg>
